<svg width="512" height="512" viewBox="0 0 512 512" fill="none" xmlns="http://www.w3.org/2000/svg">
  <!-- Background circle -->
  <circle cx="256" cy="256" r="256" fill="#667eea"/>
  
  <!-- Main cloud shape -->
  <path
    d="M128 320c-35.2 0-64-28.8-64-64 0-35.2 28.8-64 64-64 8.8 0 16.8 1.6 24.8 4.8C162.4 161.6 199.2 136 240 136c52.8 0 96 43.2 96 96 0 10.4-1.6 20-4.8 29.6C347.2 267.2 360 283.6 360 304c0 26.4-21.6 48-48 48H128z"
    fill="white"
    opacity="0.9"
  />
  
  <!-- Folder icon inside cloud -->
  <rect
    x="176"
    y="224"
    width="128"
    height="64"
    rx="8"
    fill="#667eea"
    stroke="white"
    strokeWidth="4"
  />
  
  <!-- Navigation compass -->
  <circle
    cx="384"
    cy="128"
    r="96"
    fill="#667eea"
    opacity="0.95"
  />
  
  <!-- Compass needle - North -->
  <path
    d="M384 64l24 48-24 16-24-16z"
    fill="white"
  />
  
  <!-- Compass needle - South -->
  <path
    d="M384 192l-24-48 24-16 24 16z"
    fill="white"
    opacity="0.8"
  />
  
  <!-- Center dot -->
  <circle
    cx="384"
    cy="128"
    r="16"
    fill="white"
  />
  
  <!-- Connection lines -->
  <path
    d="M288 128h32"
    stroke="#667eea"
    strokeWidth="8"
    strokeLinecap="round"
    opacity="0.7"
  />
  
  <path
    d="M320 160l32-32"
    stroke="#667eea"
    strokeWidth="8"
    strokeLinecap="round"
    opacity="0.7"
  />
</svg> 