<?xml version="1.0" encoding="UTF-8"?>
<svg version="1.1" xmlns="http://www.w3.org/2000/svg" width="1024" height="1024">
<path d="M0 0 C337.92 0 675.84 0 1024 0 C1024 337.92 1024 675.84 1024 1024 C686.08 1024 348.16 1024 0 1024 C0 686.08 0 348.16 0 0 Z " fill="#A0B6A9" transform="translate(0,0)"/>
<path d="M0 0 C1.46373047 0.69222656 1.46373047 0.69222656 2.95703125 1.3984375 C14.48335051 7.23753921 28.01172829 16.90098022 35 28 C35 28.66 35 29.32 35 30 C35.58265625 30.20753906 36.1653125 30.41507812 36.765625 30.62890625 C39.84978148 32.52145682 40.97479129 34.80812567 42.75 37.9375 C43.36359375 38.99839844 43.9771875 40.05929687 44.609375 41.15234375 C46 44 46 44 46 47 C46.66 47 47.32 47 48 47 C51.37536567 53.5209192 53.78615414 60.13395359 55.75 67.1875 C55.96035889 67.93499512 56.17071777 68.68249023 56.38745117 69.45263672 C58.32240617 76.6337335 59.14023704 83.53724385 59.0625 91 C59.05347656 92.134375 59.04445313 93.26875 59.03515625 94.4375 C59.01775391 95.7059375 59.01775391 95.7059375 59 97 C60.175625 96.5978125 60.175625 96.5978125 61.375 96.1875 C62.57125 95.795625 63.7675 95.40375 65 95 C65.74878418 94.74154297 66.49756836 94.48308594 67.26904297 94.21679688 C73.30947082 92.23711075 78.77827583 91.45336368 85.125 91.5 C86.0337085 91.50499512 86.94241699 91.50999023 87.87866211 91.51513672 C105.23898535 91.95703031 121.1109804 99.59817497 134 111 C134.55945313 111.48855469 135.11890625 111.97710937 135.6953125 112.48046875 C138.17772352 114.78556469 139.61990836 116.57917521 140 120 C140.66 120 141.32 120 142 120 C142 120.99 142 121.98 142 123 C142.598125 123.226875 143.19625 123.45375 143.8125 123.6875 C146.63240835 125.37944501 147.59597086 127.05153881 149 130 C149 131.32 149 132.64 149 134 C149.66 134 150.32 134 151 134 C151.62672821 136.1661674 152.25129331 138.33296068 152.875 140.5 C153.22304688 141.7065625 153.57109375 142.913125 153.9296875 144.15625 C154.45949219 146.05890625 154.45949219 146.05890625 155 148 C155.28012939 148.95036133 155.28012939 148.95036133 155.56591797 149.91992188 C157.01699908 155.14016335 157.38557083 160.09301924 157.375 165.5 C157.37338867 166.36931152 157.37177734 167.23862305 157.37011719 168.13427734 C157.07400521 184.01110504 151.67619531 203.14571504 141.02758789 215.24023438 C138.7081727 218.3972084 137.93157559 220.90492943 136.99609375 224.69921875 C136.83346542 225.34920334 136.6708371 225.99918793 136.50328064 226.66886902 C135.9839377 228.77535246 135.4882118 230.88609511 135 233 C134.83735657 233.70207581 134.67471313 234.40415161 134.50714111 235.12750244 C133.31017468 240.34550243 132.1800805 245.57701464 131.0625 250.8125 C130.8888089 251.62013794 130.7151178 252.42777588 130.53616333 253.2598877 C128.39102561 263.23612055 126.32890897 273.22208478 124.4375 283.25 C122.65434312 292.64513583 120.85865864 302.03745489 118.94802856 311.40759277 C118.65352463 312.86516758 118.36467608 314.32389858 118.08200073 315.78381348 C114.44415182 334.5235059 114.44415182 334.5235059 105.9375 340.375 C105.28652344 340.83648438 104.63554688 341.29796875 103.96484375 341.7734375 C97.33836507 345.91004646 90.96899483 346.1485509 83.33538818 346.13371277 C82.47568774 346.13597833 81.61598731 346.13824388 80.73023534 346.14057809 C77.85627595 346.14689627 74.98236399 346.14609012 72.10839844 346.14526367 C70.04494669 346.14825655 67.9814955 346.15165937 65.91804504 346.15544128 C60.31666488 346.16427301 54.71529999 346.16661907 49.11391354 346.16725707 C45.61251352 346.16796811 42.11111738 346.17010348 38.60971832 346.17275429 C26.38906101 346.18200539 14.1684146 346.18608952 1.94775391 346.18530273 C-9.43452217 346.18470219 -20.81675082 346.19524999 -32.1990149 346.2110464 C-41.97840671 346.22413353 -51.75778303 346.22948613 -61.53718352 346.22884732 C-67.37472307 346.22859266 -73.21222047 346.23142659 -79.04975128 346.24202538 C-84.54252026 346.25172591 -90.03520697 346.25177209 -95.5279789 346.24450874 C-97.53948144 346.24346529 -99.55098915 346.24581151 -101.56248283 346.2518692 C-104.31756883 346.25962623 -107.07237335 346.25491988 -109.82745361 346.24723816 C-110.61522257 346.25238172 -111.40299153 346.25752529 -112.21463227 346.26282471 C-126.42936962 346.17580383 -126.42936962 346.17580383 -130.98565412 342.31932515 C-135.75489035 337.00573411 -136.28967565 332.51996926 -136.21484375 325.52734375 C-135.86088812 319.71603592 -134.67131885 314.09374528 -133.49169922 308.40625 C-132.78005923 304.92366624 -132.12151594 301.4314762 -131.45800781 297.93945312 C-129.63537385 288.3591761 -127.76505259 278.78822874 -125.88671875 269.21875 C-125.11192946 265.27084308 -124.33714806 261.32293463 -123.5625 257.375 C-123.27147903 255.89187317 -123.27147903 255.89187317 -122.97457886 254.37878418 C-119.55428262 236.93664455 -116.23007208 219.47834333 -113 202 C-113.66 202 -114.32 202 -115 202 C-115 202.66 -115 203.32 -115 204 C-115.66 204 -116.32 204 -117 204 C-117 204.66 -117 205.32 -117 206 C-117.66 206 -118.32 206 -119 206 C-119.144375 206.639375 -119.28875 207.27875 -119.4375 207.9375 C-120 210 -120 210 -121 211 C-121.44355899 213.11543518 -121.8861889 215.23106927 -122.32421875 217.34765625 C-123.03402711 220.13355148 -124.03340667 222.65487524 -125.125 225.3125 C-127.39610531 231.25101981 -127.39482968 236.71562765 -127 243 C-132.39991819 243.9020513 -137.60517713 244.15366993 -143.07446289 244.16113281 C-143.95698227 244.16609772 -144.83950165 244.17106262 -145.74876404 244.17617798 C-148.65673625 244.19072778 -151.56465367 244.19759428 -154.47265625 244.203125 C-155.4758383 244.20595238 -156.47902035 244.20877975 -157.51260185 244.21169281 C-162.83530818 244.22666641 -168.1579876 244.23590387 -173.48071289 244.24023438 C-178.91644056 244.24567585 -184.35191225 244.26961662 -189.78756046 244.29820633 C-194.01843417 244.3170659 -198.24924952 244.3220508 -202.48016167 244.32357025 C-204.47994808 244.32655177 -206.47973464 244.33442271 -208.47947884 244.34775543 C-219.03080655 244.41300636 -229.38319148 244.06385841 -239.85717773 242.70996094 C-240.7465632 242.59928913 -241.63594866 242.48861732 -242.55228519 242.37459183 C-255.5339005 240.50716982 -266.43133738 233.7683098 -276 225 C-276.63164062 224.43667969 -277.26328125 223.87335938 -277.9140625 223.29296875 C-291.22341304 210.77514346 -299.42093178 193.33705341 -300.27734375 175.1640625 C-300.71500857 159.54210788 -298.04708514 146.09417028 -291 132 C-290.34 132 -289.68 132 -289 132 C-288.74863281 131.11570312 -288.49726563 130.23140625 -288.23828125 129.3203125 C-286.9580868 125.88761444 -285.49928081 123.69510737 -283.1875 120.875 C-282.52105469 120.04742187 -281.85460937 119.21984375 -281.16796875 118.3671875 C-278.93699112 115.93120112 -276.68311943 113.92475014 -274 112 C-273.34 112 -272.68 112 -272 112 C-272 111.34 -272 110.68 -272 110 C-264.20004316 105.26832589 -256.96862715 101.08536261 -248 99 C-247.30390625 98.79761719 -246.6078125 98.59523438 -245.890625 98.38671875 C-241.10070595 97.02214879 -236.92518223 96.82410063 -232 97 C-232.0825 96.0925 -232.165 95.185 -232.25 94.25 C-232.28831689 88.02989143 -229.75707704 81.51415408 -227 76 C-226.34 76 -225.68 76 -225 76 C-224.91492188 75.28457031 -224.82984375 74.56914062 -224.7421875 73.83203125 C-222.44996362 65.08538751 -213.67662278 58.54302987 -206.67578125 53.4609375 C-203.7409487 51.85856177 -201.30586559 51.35817577 -198 51 C-198 50.34 -198 49.68 -198 49 C-190.40145773 46.56187595 -183.53146359 45.51095641 -175.5625 45.625 C-174.55840088 45.63225098 -173.55430176 45.63950195 -172.51977539 45.64697266 C-165.34429655 45.78074587 -158.79818297 46.59304403 -152 49 C-150.7625 49.391875 -149.525 49.78375 -148.25 50.1875 C-147.5075 50.455625 -146.765 50.72375 -146 51 C-145.34 48.69 -144.68 46.38 -144 44 C-143.34 44 -142.68 44 -142 44 C-141.896875 43.278125 -141.79375 42.55625 -141.6875 41.8125 C-140.93206053 38.72206579 -139.84468685 36.58256159 -138 34 C-137.34 34 -136.68 34 -136 34 C-135.731875 33.195625 -135.46375 32.39125 -135.1875 31.5625 C-134.795625 30.716875 -134.40375 29.87125 -134 29 C-133.01 28.67 -132.02 28.34 -131 28 C-130.71125 27.4225 -130.4225 26.845 -130.125 26.25 C-128.59906937 23.19813874 -126.46736935 21.35770849 -124 19 C-123.55269531 18.49726563 -123.10539063 17.99453125 -122.64453125 17.4765625 C-112.39738832 6.25475559 -96.82815532 -2.42678395 -82.3046875 -6.34765625 C-79.50020492 -7.14146742 -76.85637562 -8.20441045 -74.1796875 -9.3515625 C-50.07434602 -16.52268559 -21.84753206 -10.58362121 0 0 Z " fill="#FBFBFB" transform="translate(584,340)"/>
<path d="M0 0 C0.88238376 -0.00453111 1.76476751 -0.00906223 2.67389017 -0.01373065 C5.6185492 -0.02634968 8.56302268 -0.0247559 11.50770569 -0.02310181 C13.62381222 -0.02908851 15.73991658 -0.03589438 17.85601807 -0.04345703 C23.59563878 -0.06110727 29.33519984 -0.06581194 35.07484508 -0.0670886 C38.66183704 -0.06851103 42.24881387 -0.0727823 45.83580208 -0.07808304 C58.35242296 -0.09657832 70.86900128 -0.10475406 83.38563538 -0.10317993 C95.04920795 -0.10197786 106.71259567 -0.1230944 118.37612146 -0.15466726 C128.39499721 -0.18082081 138.41381253 -0.19154765 148.43272215 -0.19026911 C154.41443195 -0.18975932 160.39597735 -0.19545268 166.37765312 -0.21662521 C172.00265098 -0.23599254 177.62732729 -0.23614216 183.2523365 -0.22159195 C185.3146728 -0.21950108 187.37702915 -0.22422127 189.43933105 -0.23631287 C192.25884069 -0.25177139 195.07724238 -0.24245314 197.89672852 -0.22705078 C199.11527941 -0.24248147 199.11527941 -0.24248147 200.35844749 -0.25822389 C206.84828436 -0.18009703 212.3142846 1.58748524 216.99159241 6.23422241 C220.44718434 13.12059945 217.37120267 22.65443437 215.82435608 29.76742554 C215.36220296 31.97420256 214.90130613 34.18124298 214.44154358 36.38851929 C214.20403381 37.51886597 213.96652405 38.64921265 213.72181702 39.81381226 C212.78664249 44.36297968 211.93000073 48.92526657 211.0750885 53.49008179 C209.33762743 62.76377179 207.41792329 71.88963861 205.03138733 81.01742554 C203.69023034 86.38727707 202.71693804 91.82889284 201.69935608 97.26742554 C199.73847272 107.72235387 197.59108283 118.12543272 195.32435608 128.51742554 C195.17396881 129.21255249 195.02358154 129.90767944 194.86863708 130.62387085 C194.43709188 132.61528168 194.00073233 134.60557152 193.56263733 136.59555054 C193.31167297 137.73927124 193.06070862 138.88299194 192.80213928 140.06137085 C192.02861062 143.19945499 191.07810776 146.21769784 190.01185608 149.26742554 C189.35185608 149.26742554 188.69185608 149.26742554 188.01185608 149.26742554 C187.82623108 149.84492554 187.64060608 150.42242554 187.44935608 151.01742554 C185.10959394 154.67966194 181.27291438 156.61194439 177.13668239 157.81103867 C173.58807914 158.57323552 169.98513538 158.4154045 166.37101746 158.41459656 C165.04917003 158.42011159 165.04917003 158.42011159 163.70061862 158.42573804 C160.74202132 158.4367683 157.78345914 158.44061756 154.82484436 158.44442749 C152.70593657 158.45069249 150.58702988 158.45733932 148.46812439 158.46434021 C142.70781534 158.48174291 136.94751458 158.49229937 131.18718576 158.50054574 C127.5896773 158.50569604 123.99217141 158.51177167 120.39466476 158.51805687 C109.14250148 158.53710445 97.89034476 158.55133814 86.63816845 158.55966884 C73.64201525 158.56944937 60.646032 158.5957921 47.6499387 158.63616973 C37.60823232 158.66630009 27.56657475 158.68113467 17.52482402 158.68444985 C11.52523756 158.68680326 5.52583276 158.69580204 -0.47370529 158.72091103 C-6.11587889 158.74414366 -11.75775058 158.74844427 -17.39995956 158.73814964 C-19.4712016 158.73765305 -21.54245827 158.74400963 -23.61365509 158.75770569 C-26.44057999 158.7753541 -29.26641301 158.76835319 -32.09333801 158.75517273 C-32.91357732 158.76614198 -33.73381662 158.77711122 -34.57891166 158.78841287 C-39.83486982 158.72921713 -42.80531372 157.73064058 -46.98814392 154.26742554 C-50.52807591 149.08499878 -49.27903364 142.43290831 -48.276474 136.55136108 C-47.94541841 134.8339531 -47.60529112 133.11827705 -47.25767517 131.40414429 C-47.07089706 130.44670822 -46.88411896 129.48927216 -46.69168091 128.50282288 C-46.06892206 125.31864896 -45.43463809 122.1368797 -44.80064392 118.95492554 C-44.35761521 116.69876842 -43.91558248 114.44241552 -43.47447205 112.18588257 C-42.76265858 108.54494021 -42.05021445 104.90413286 -41.33485413 101.2638855 C-39.35871514 91.20195105 -37.42173675 81.13282492 -35.49986267 71.06039429 C-35.35368814 70.29439344 -35.20751362 69.5283926 -35.05690956 68.73917961 C-34.32311863 64.89310006 -33.58983636 61.04692377 -32.85688782 57.20068359 C-31.59379966 50.57257345 -30.3289198 43.94480613 -29.06266212 37.3173008 C-28.68849988 35.3581772 -28.31489733 33.39894673 -27.9413147 31.43971252 C-27.49510421 29.10361379 -27.04689635 26.76789526 -26.59625244 24.43264771 C-26.20240717 22.38267185 -25.81554823 20.33133634 -25.43704224 18.2784729 C-25.26852249 17.38489075 -25.10000275 16.49130859 -24.92637634 15.57064819 C-24.78471542 14.8024173 -24.6430545 14.0341864 -24.49710083 13.24267578 C-23.74089709 10.30786619 -22.35250882 8.46038134 -20.30064392 6.26742554 C-19.33578064 5.18461304 -19.33578064 5.18461304 -18.35142517 4.07992554 C-12.91751498 -0.08756922 -6.56621162 -0.02496556 0 0 Z " fill="#548866" transform="translate(501.98814392089844,522.7325744628906)"/>
<path d="M0 0 C1.00370636 -0.0071553 2.00741272 -0.01431061 3.04153442 -0.02168274 C4.1418399 -0.02437164 5.24214539 -0.02706055 6.37579346 -0.02983093 C7.53541595 -0.03640213 8.69503845 -0.04297333 9.88980103 -0.04974365 C13.7357184 -0.06948959 17.58159671 -0.08114194 21.42755127 -0.09111023 C22.73997047 -0.09518576 24.05238968 -0.09926128 25.40457916 -0.10346031 C31.63401047 -0.12250739 37.86342996 -0.13673882 44.09288478 -0.14507228 C51.27528819 -0.15484005 58.45738304 -0.18114917 65.63967776 -0.22157317 C71.19649218 -0.25177133 76.75321833 -0.26654468 82.31011319 -0.26985329 C85.62648417 -0.27219982 88.94245064 -0.28309128 92.25875092 -0.30631447 C95.96207797 -0.33063671 99.66459864 -0.32975294 103.36798096 -0.32279968 C104.46018951 -0.33560974 105.55239807 -0.3484198 106.67770386 -0.36161804 C114.01971557 -0.31138917 118.68253771 0.72014352 124.04473877 6.04951477 C128.65758449 14.95993977 124.07646082 30.74926374 122.13067627 40.14717102 C121.80067627 41.13717102 121.47067627 42.12717102 121.13067627 43.14717102 C74.60067627 43.14717102 28.07067627 43.14717102 -19.86932373 43.14717102 C-17.62407658 11.71371094 -17.62407658 11.71371094 -10.30682373 3.14717102 C-6.86737981 0.32506319 -4.30435655 0.021069 0 0 Z " fill="#4B815D" transform="translate(564.8693237304688,474.8528289794922)"/>
<path d="M0 0 C0.495 2.475 0.495 2.475 1 5 C1.33 3.35 1.66 1.7 2 0 C2.99 0.495 2.99 0.495 4 1 C2.58617028 15.41540778 -0.30226554 29.53751676 -3.10343933 43.73508072 C-3.774671 47.14559956 -4.43836214 50.55758398 -5.10253906 53.96948242 C-7.23649287 64.92362251 -9.38371455 75.87514179 -11.54101562 86.82470703 C-12.73020338 92.86068124 -13.91205244 98.89805083 -15.08911133 104.93640137 C-15.73717812 108.24700042 -16.39483196 111.55560173 -17.05273438 114.86425781 C-17.44713869 116.88466338 -17.84104761 118.90516575 -18.234375 120.92578125 C-18.50535004 122.26703819 -18.50535004 122.26703819 -18.78179932 123.63539124 C-20.68531268 133.41038272 -20.68531268 133.41038272 -18.75 142.9375 C-16.78048726 145.25871144 -15.85024157 145.95822483 -13 147 C-10.09655296 147.1946437 -7.28938943 147.27836526 -4.38607788 147.26742554 C-3.50766853 147.27195665 -2.62925918 147.27648776 -1.72423136 147.28115618 C1.22507732 147.29383646 4.1742022 147.29217745 7.12353516 147.29052734 C9.23595417 147.29651048 11.34837098 147.30331553 13.46078491 147.31088257 C19.20484961 147.32857544 24.94885474 147.33323944 30.69294405 147.33451414 C35.48889209 147.3364124 40.28482624 147.34376942 45.08076894 147.35085833 C56.39971899 147.36715375 67.71863722 147.37202638 79.03759766 147.37060547 C90.70731639 147.36940495 102.3768499 147.39048638 114.04652178 147.4220928 C124.06791605 147.44826621 134.0892499 147.45897225 144.11067808 147.45769465 C150.09473193 147.45718517 156.07862137 147.46286057 162.06264114 147.48405075 C167.69499221 147.5034499 173.32702237 147.50354587 178.95938492 147.48901749 C181.02249115 147.48693012 183.08561754 147.49162592 185.14868927 147.5037384 C199.73414686 148.11161649 199.73414686 148.11161649 213 143 C214.00537505 141.67071493 215.00623706 140.33798841 216 139 C216.66 139 217.32 139 218 139 C218.10739502 138.37416016 218.21479004 137.74832031 218.32543945 137.10351562 C219.60324364 129.85278081 221.13731313 122.67567496 222.74307251 115.49121094 C225.93082633 101.20881299 228.87519935 86.88564705 231.69018555 72.52539062 C233.98507221 60.85002254 233.98507221 60.85002254 235.47045898 55.19140625 C236.88416677 49.34104151 237.95888831 43.40404708 239.125 37.5 C239.40476806 36.09111011 239.68471449 34.68225562 239.96484375 33.2734375 C240.64528702 29.84936429 241.32331206 26.42481759 242 23 C242.433125 23.66 242.86625 24.32 243.3125 25 C244.1478125 25.99 244.1478125 25.99 245 27 C245.99 27 246.98 27 248 27 C247.79246094 27.928125 247.58492187 28.85625 247.37109375 29.8125 C246.47703655 33.81803602 245.58912456 37.82492187 244.70214844 41.83203125 C244.20397778 44.07968857 243.70449455 46.32705514 243.20410156 48.57421875 C240.14321112 62.33244794 237.10921382 76.08498631 234.5 89.9375 C232.69536154 99.43836857 230.87930073 108.93679988 228.94702148 118.41262817 C228.65294248 119.86806628 228.36453091 121.32466299 228.08227539 122.78244019 C224.44415192 141.52350584 224.44415192 141.52350584 215.9375 147.375 C215.28652344 147.83648438 214.63554688 148.29796875 213.96484375 148.7734375 C207.33836507 152.91004646 200.96899483 153.1485509 193.33538818 153.13371277 C192.04583753 153.1371111 192.04583753 153.1371111 190.73023534 153.14057809 C187.85627595 153.14689627 184.98236399 153.14609012 182.10839844 153.14526367 C180.04494669 153.14825655 177.9814955 153.15165937 175.91804504 153.15544128 C170.31666488 153.16427301 164.71529999 153.16661907 159.11391354 153.16725707 C155.61251352 153.16796811 152.11111738 153.17010348 148.60971832 153.17275429 C136.38906101 153.18200539 124.1684146 153.18608952 111.94775391 153.18530273 C100.56547783 153.18470219 89.18324918 153.19524999 77.8009851 153.2110464 C68.02159329 153.22413353 58.24221697 153.22948613 48.46281648 153.22884732 C42.62527693 153.22859266 36.78777953 153.23142659 30.95024872 153.24202538 C25.45747974 153.25172591 19.96479303 153.25177209 14.4720211 153.24450874 C12.46051856 153.24346529 10.44901085 153.24581151 8.43751717 153.2518692 C5.68243117 153.25962623 2.92762665 153.25491988 0.17254639 153.24723816 C-0.61522257 153.25238172 -1.40299153 153.25752529 -2.21463227 153.26282471 C-16.42936962 153.17580383 -16.42936962 153.17580383 -20.98565412 149.31932515 C-25.75489035 144.00573411 -26.28967565 139.51996926 -26.21484375 132.52734375 C-25.86088812 126.71603592 -24.67131885 121.09374528 -23.49169922 115.40625 C-22.78005923 111.92366624 -22.12151594 108.4314762 -21.45800781 104.93945312 C-19.63537385 95.3591761 -17.76505259 85.78822874 -15.88671875 76.21875 C-15.11192946 72.27084308 -14.33714806 68.32293463 -13.5625 64.375 C-13.36848602 63.38624878 -13.17447205 62.39749756 -12.97457886 61.37878418 C-9.55428262 43.93664455 -6.23007208 26.47834333 -3 9 C-3.66 9 -4.32 9 -5 9 C-5 9.66 -5 10.32 -5 11 C-5.66 11 -6.32 11 -7 11 C-7 11.66 -7 12.32 -7 13 C-7.66 13 -8.32 13 -9 13 C-9.2165625 13.9590625 -9.2165625 13.9590625 -9.4375 14.9375 C-10 17 -10 17 -11 18 C-11.44355899 20.11543518 -11.8861889 22.23106927 -12.32421875 24.34765625 C-13.03402711 27.13355148 -14.03340667 29.65487524 -15.125 32.3125 C-17.39610531 38.25101981 -17.39482968 43.71562765 -17 50 C-22.51986122 50.93464137 -27.83150229 51.13707308 -33.42358398 51.11352539 C-34.80037071 51.11374443 -34.80037071 51.11374443 -36.20497131 51.1139679 C-39.21870339 51.11327493 -42.23237256 51.10551151 -45.24609375 51.09765625 C-47.34359198 51.09578988 -49.44109065 51.09436701 -51.53858948 51.09336853 C-57.04423233 51.0895606 -62.54984858 51.07974509 -68.05548096 51.06866455 C-73.67956177 51.0584133 -79.3036469 51.05386296 -84.92773438 51.04882812 C-95.95183457 51.03812123 -106.97591507 51.02106559 -118 51 C-118 50.67 -118 50.34 -118 50 C-88.63 49.67 -59.26 49.34 -29 49 C-28.01 47.02 -27.02 45.04 -26 43 C-23.3125 42.125 -23.3125 42.125 -21 42 C-20.4465236 39.92446352 -20 38.15634036 -20 36 C-20 35.34 -20 34.68 -20 34 C-19.34 34 -18.68 34 -18 34 C-17.67 31.36 -17.34 28.72 -17 26 C-17.99 26.66 -18.98 27.32 -20 28 C-22.1875 27.625 -22.1875 27.625 -24 27 C-22.50632339 21.96120487 -19.45178083 18.97641818 -15.875 15.3125 C-11.74552447 11.71210168 -11.74552447 11.71210168 -10 7 C-9.34 7 -8.68 7 -8 7 C-7.773125 6.401875 -7.54625 5.80375 -7.3125 5.1875 C-5.80871596 2.68119327 -3.17418185 0 0 0 Z " fill="#F2FEF9" transform="translate(474,533)"/>
<path d="M0 0 C55.11 0 110.22 0 167 0 C168 7 168 7 166.97333622 8.91411114 C164.07519395 10.50890293 161.72737465 10.37468165 158.42662048 10.3742218 C157.75576575 10.37819621 157.08491102 10.38217061 156.39372736 10.38626546 C154.14109555 10.39590616 151.88908901 10.38406029 149.63647461 10.37231445 C148.02353175 10.37474182 146.41059039 10.37846061 144.7976532 10.38337708 C140.41345878 10.39279653 136.0294872 10.38335225 131.64531016 10.37004495 C127.063146 10.3587461 122.48099306 10.36283669 117.89881897 10.36479187 C110.20423736 10.36567525 102.50974378 10.35458446 94.81518555 10.33618164 C85.91000678 10.31500582 77.00495694 10.31150546 68.09975809 10.3177436 C59.54341736 10.32343122 50.9871222 10.3177992 42.43078804 10.30657005 C38.78448205 10.30191684 35.13820384 10.30105332 31.49189568 10.3031559 C27.20160045 10.30503467 22.91143711 10.29696673 18.62117195 10.2810955 C17.04332144 10.2768404 15.46545757 10.27601029 13.88760376 10.27878571 C11.74038803 10.28199057 9.59357062 10.27296921 7.44639587 10.26069641 C6.24274352 10.25864354 5.03909117 10.25659067 3.7989645 10.25447559 C1 10 1 10 -1 8 C-1.33333333 2.66666667 -1.33333333 2.66666667 0 0 Z " fill="#FAFCFA" transform="translate(505,588)"/>
<path d="M0 0 C1.03540381 -0.00233999 1.03540381 -0.00233999 2.09172487 -0.00472724 C4.42180755 -0.00873942 6.75182593 -0.00554678 9.08190918 -0.00241089 C10.74543801 -0.00376483 12.40896655 -0.00554473 14.07249451 -0.00772095 C18.6033571 -0.01229609 23.13419703 -0.01050539 27.66506004 -0.00734186 C32.39584796 -0.00481868 37.12663388 -0.00715568 41.85742188 -0.00872803 C49.80351105 -0.01054985 57.74959094 -0.0081431 65.69567871 -0.00338745 C74.89618629 0.00205519 84.09667171 0.00029254 93.29717875 -0.00521386 C101.18165226 -0.00974464 109.06611908 -0.01039571 116.95059347 -0.00777519 C121.66616778 -0.00621222 126.38173165 -0.00601918 131.0973053 -0.00931168 C135.52952174 -0.01218989 139.96170948 -0.01021562 144.39392281 -0.00441742 C146.02541112 -0.00308955 147.65690183 -0.00348439 149.28838921 -0.00568008 C151.50601334 -0.00839056 153.72354402 -0.00501176 155.94116211 0 C157.18520561 0.00037703 158.42924911 0.00075405 159.71099091 0.0011425 C162.47058105 0.12698364 162.47058105 0.12698364 163.47058105 1.12698364 C163.65808105 4.06448364 163.65808105 4.06448364 163.47058105 7.12698364 C160.65060282 9.94696188 158.85629286 9.37852193 154.90356445 9.38095093 C154.22131349 9.38407091 153.53906253 9.38719089 152.83613729 9.39040542 C150.53906836 9.39841327 148.24226156 9.39205108 145.94519043 9.38577271 C144.3028396 9.38848134 142.66048999 9.39204154 141.0181427 9.39639282 C136.54923098 9.40553434 132.08041128 9.40196534 127.61149788 9.39563465 C122.94257477 9.39058375 118.27365973 9.39526356 113.60473633 9.39840698 C105.7629657 9.40204929 97.9212327 9.3972406 90.07946777 9.38772583 C81.00333627 9.37684077 71.92729462 9.38036616 62.85116529 9.39137864 C55.06940932 9.40044399 47.28768044 9.40174049 39.50592089 9.3965013 C34.85347552 9.39337745 30.20107244 9.3929836 25.54862976 9.39957428 C21.17546046 9.4053362 16.80240741 9.40137212 12.42925072 9.38978577 C10.82075888 9.38713298 9.21225732 9.38791476 7.6037693 9.3923111 C5.4149117 9.39774376 3.22643098 9.39096062 1.03759766 9.38095093 C-0.80301365 9.37981985 -0.80301365 9.37981985 -2.68080902 9.37866592 C-5.52941895 9.12698364 -5.52941895 9.12698364 -7.52941895 7.12698364 C-7.71691895 4.06448364 -7.71691895 4.06448364 -7.52941895 1.12698364 C-5.6591532 -0.74328211 -2.49181129 0.00075518 0 0 Z " fill="#F8FDFA" transform="translate(519.5294189453125,559.8730163574219)"/>
<path d="M0 0 C0.495 2.475 0.495 2.475 1 5 C1.33 3.35 1.66 1.7 2 0 C2.99 0.495 2.99 0.495 4 1 C2.58617028 15.41540778 -0.30226554 29.53751676 -3.10343933 43.73508072 C-3.774671 47.14559956 -4.43836214 50.55758398 -5.10253906 53.96948242 C-7.23649287 64.92362251 -9.38371455 75.87514179 -11.54101562 86.82470703 C-12.73020338 92.86068124 -13.91205244 98.89805083 -15.08911133 104.93640137 C-15.73717812 108.24700042 -16.39483196 111.55560173 -17.05273438 114.86425781 C-17.44713869 116.88466338 -17.84104761 118.90516575 -18.234375 120.92578125 C-18.50535004 122.26703819 -18.50535004 122.26703819 -18.78179932 123.63539124 C-20.67133804 133.36621924 -20.67133804 133.36621924 -18.8125 142.875 C-16.78703103 145.24968775 -14.66242376 146.41693723 -12 148 C-12 148.99 -12 149.98 -12 151 C-14.0625 151.875 -14.0625 151.875 -17 152 C-21.59348922 149.23996356 -24.4049194 146.14566868 -26 141 C-27.02434821 132.31299506 -25.24803116 123.87434375 -23.49169922 115.40625 C-22.78005923 111.92366624 -22.12151594 108.4314762 -21.45800781 104.93945312 C-19.63537385 95.3591761 -17.76505259 85.78822874 -15.88671875 76.21875 C-15.11192946 72.27084308 -14.33714806 68.32293463 -13.5625 64.375 C-13.36848602 63.38624878 -13.17447205 62.39749756 -12.97457886 61.37878418 C-9.55428262 43.93664455 -6.23007208 26.47834333 -3 9 C-3.66 9 -4.32 9 -5 9 C-5 9.66 -5 10.32 -5 11 C-5.66 11 -6.32 11 -7 11 C-7 11.66 -7 12.32 -7 13 C-7.66 13 -8.32 13 -9 13 C-9.2165625 13.9590625 -9.2165625 13.9590625 -9.4375 14.9375 C-10 17 -10 17 -11 18 C-11.44355899 20.11543518 -11.8861889 22.23106927 -12.32421875 24.34765625 C-13.03402711 27.13355148 -14.03340667 29.65487524 -15.125 32.3125 C-17.39610531 38.25101981 -17.39482968 43.71562765 -17 50 C-22.51986122 50.93464137 -27.83150229 51.13707308 -33.42358398 51.11352539 C-34.80037071 51.11374443 -34.80037071 51.11374443 -36.20497131 51.1139679 C-39.21870339 51.11327493 -42.23237256 51.10551151 -45.24609375 51.09765625 C-47.34359198 51.09578988 -49.44109065 51.09436701 -51.53858948 51.09336853 C-57.04423233 51.0895606 -62.54984858 51.07974509 -68.05548096 51.06866455 C-73.67956177 51.0584133 -79.3036469 51.05386296 -84.92773438 51.04882812 C-95.95183457 51.03812123 -106.97591507 51.02106559 -118 51 C-118 50.67 -118 50.34 -118 50 C-88.63 49.67 -59.26 49.34 -29 49 C-28.01 47.02 -27.02 45.04 -26 43 C-23.3125 42.125 -23.3125 42.125 -21 42 C-20.4465236 39.92446352 -20 38.15634036 -20 36 C-20 35.34 -20 34.68 -20 34 C-19.34 34 -18.68 34 -18 34 C-17.67 31.36 -17.34 28.72 -17 26 C-17.99 26.66 -18.98 27.32 -20 28 C-22.1875 27.625 -22.1875 27.625 -24 27 C-22.50632339 21.96120487 -19.45178083 18.97641818 -15.875 15.3125 C-11.74552447 11.71210168 -11.74552447 11.71210168 -10 7 C-9.34 7 -8.68 7 -8 7 C-7.773125 6.401875 -7.54625 5.80375 -7.3125 5.1875 C-5.80871596 2.68119327 -3.17418185 0 0 0 Z " fill="#EBF6EE" transform="translate(474,533)"/>
<path d="M0 0 C15.48112783 -0.02333859 30.96225435 -0.04098391 46.44339561 -0.05181217 C53.63121503 -0.05697308 60.81902353 -0.06401189 68.00683594 -0.07543945 C74.27019115 -0.08539253 80.53353845 -0.09185492 86.79690135 -0.09408849 C90.11468721 -0.09539454 93.43244512 -0.09899419 96.75022507 -0.10573006 C100.44987096 -0.11294526 104.14946935 -0.11399073 107.84912109 -0.11352539 C108.95466843 -0.11712067 110.06021576 -0.12071594 111.19926453 -0.12442017 C112.20329819 -0.1230455 113.20733185 -0.12167084 114.24179077 -0.12025452 C115.55534577 -0.12163721 115.55534577 -0.12163721 116.89543724 -0.12304783 C119 0 119 0 121 1 C121.125 3.875 121.125 3.875 121 7 C119 9 119 9 116.89543724 9.24609566 C116.01973391 9.24425207 115.14403057 9.24240849 114.24179077 9.24050903 C113.23775711 9.24325836 112.23372345 9.24600769 111.19926453 9.24884033 C109.54094353 9.2380545 109.54094353 9.2380545 107.84912109 9.22705078 C106.68815414 9.22734283 105.52718719 9.22763489 104.33103943 9.22793579 C100.47843046 9.22653804 96.62601285 9.21095575 92.7734375 9.1953125 C90.1082832 9.19158395 87.44313963 9.1886379 84.77798462 9.18673706 C78.47043425 9.18051488 72.162953 9.16409413 65.85543311 9.14403808 C58.67536378 9.12170199 51.4952912 9.11069143 44.3151958 9.10064721 C29.54342847 9.07972851 14.77171544 9.04453823 0 9 C-1.125 2.25 -1.125 2.25 0 0 Z " fill="#FAFDFA" transform="translate(497,615)"/>
<path d="M0 0 C0.433125 0.66 0.86625 1.32 1.3125 2 C1.869375 2.66 2.42625 3.32 3 4 C3.99 4 4.98 4 6 4 C5.79246094 4.928125 5.58492187 5.85625 5.37109375 6.8125 C4.47703655 10.81803602 3.58912456 14.82492187 2.70214844 18.83203125 C2.20397778 21.07968857 1.70449455 23.32705514 1.20410156 25.57421875 C-1.85678888 39.33244794 -4.89078618 53.08498631 -7.5 66.9375 C-9.30463846 76.43836857 -11.12069927 85.93679988 -13.05297852 95.41262817 C-13.34705752 96.86806628 -13.63546909 98.32466299 -13.91772461 99.78244019 C-16.06706563 110.85434072 -18.42687767 119.19818687 -28.01171875 125.8046875 C-30.64835291 127.38977601 -32.96473236 128.44813316 -36 129 C-38.375 128.125 -38.375 128.125 -40 127 C-38.515 126.505 -38.515 126.505 -37 126 C-37.66 125.34 -38.32 124.68 -39 124 C-38.31292969 123.75765625 -37.62585938 123.5153125 -36.91796875 123.265625 C-35.56638672 122.76289062 -35.56638672 122.76289062 -34.1875 122.25 C-33.29417969 121.92515625 -32.40085937 121.6003125 -31.48046875 121.265625 C-28.74272272 119.86872781 -27.73346433 118.47786493 -26 116 C-25.34 116 -24.68 116 -24 116 C-23.89260498 115.37416016 -23.78520996 114.74832031 -23.67456055 114.10351562 C-22.39675636 106.85278081 -20.86268687 99.67567496 -19.25692749 92.49121094 C-16.06917367 78.20881299 -13.12480065 63.88564705 -10.30981445 49.52539062 C-8.01492779 37.85002254 -8.01492779 37.85002254 -6.52954102 32.19140625 C-5.11583323 26.34104151 -4.04111169 20.40404708 -2.875 14.5 C-2.59523194 13.09111011 -2.31528551 11.68225562 -2.03515625 10.2734375 C-1.35471298 6.84936429 -0.67668794 3.42481759 0 0 Z " fill="#EAF6ED" transform="translate(716,556)"/>
<path d="M0 0 C1.32563424 -0.00128164 1.32563424 -0.00128164 2.67804897 -0.00258917 C5.6568767 -0.00424404 8.63564884 0.00127754 11.61447144 0.00672913 C13.74281818 0.00701102 15.87116503 0.00685322 17.99951172 0.00628662 C23.79260542 0.00599874 29.58567858 0.01189395 35.37876749 0.01886058 C41.42729495 0.02509569 47.47582285 0.02569804 53.52435303 0.02688599 C64.984898 0.02999884 76.44543348 0.03821161 87.90597427 0.04823548 C100.95051123 0.05939804 113.99504863 0.06490743 127.03958917 0.06993091 C153.8794966 0.08039425 180.7193956 0.09799281 207.55929565 0.12025452 C207.55929565 0.78025452 207.55929565 1.44025452 207.55929565 2.12025452 C199.17773607 3.11259694 190.85441612 3.24279311 182.42533302 3.19541931 C180.07810688 3.18240396 177.73093882 3.17607523 175.38368225 3.17127991 C169.54564413 3.15805485 163.70766065 3.13408784 157.86965942 3.10987854 C152.14772246 3.08657584 146.42580204 3.06838331 140.7038269 3.05775452 C139.90651342 3.05608843 139.10919994 3.05442234 138.28772545 3.05270576 C127.74248909 3.03738555 117.24579304 3.25959315 106.71194458 3.79187012 C97.59287567 4.22810297 88.5217954 4.05030162 79.40023804 3.76789856 C74.55403629 3.61938902 69.70706173 3.50169155 64.8600769 3.38197327 C63.89794281 3.3577832 62.93580872 3.33359314 61.94451904 3.30867004 C53.06609729 3.09264177 44.19024896 2.99420808 35.30929565 2.99525452 C34.63560944 2.99517395 33.96192322 2.99509338 33.26782227 2.99501038 C24.2198075 3.00497378 15.23338229 3.25683885 6.21554565 3.99916077 C4.9007019 4.05910217 4.9007019 4.05910217 3.55929565 4.12025452 C3.22929565 3.79025452 2.89929565 3.46025452 2.55929565 3.12025452 C-0.11129286 2.9791029 -2.76502672 3.07778344 -5.44070435 3.12025452 C-5.77070435 3.78025452 -6.10070435 4.44025452 -6.44070435 5.12025452 C-8.42070435 5.12025452 -10.40070435 5.12025452 -12.44070435 5.12025452 C-9.71735116 -0.91002754 -6.08100428 -0.02122286 0 0 Z " fill="#6F9179" transform="translate(501.4407043457031,522.8797454833984)"/>
<path d="M0 0 C0.99 0.33 1.98 0.66 3 1 C2.60603027 1.72110962 2.60603027 1.72110962 2.20410156 2.45678711 C-1.34619857 9.5777633 -2.27235961 16.7293567 -3.25 24.5625 C-3.42273438 25.85736328 -3.59546875 27.15222656 -3.7734375 28.48632812 C-4.19452215 31.65615976 -4.60302531 34.82707448 -5 38 C-5.66 37.67 -6.32 37.34 -7 37 C-7.99 37.495 -7.99 37.495 -9 38 C-11.5115887 38.09792892 -13.98909766 38.13907983 -16.5 38.125 C-17.18964844 38.12886719 -17.87929688 38.13273438 -18.58984375 38.13671875 C-23.74666707 38.12666646 -23.74666707 38.12666646 -26 37 C-26.27875955 29.89163151 -24.65854708 25.94513901 -21 20 C-20.71125 19.319375 -20.4225 18.63875 -20.125 17.9375 C-18.02076433 14.31353857 -14.42509683 12.28339789 -11 10 C-10.01 10 -9.02 10 -8 10 C-8 9.34 -8 8.68 -8 8 C-7.34 8 -6.68 8 -6 8 C-5.01 9.485 -5.01 9.485 -4 11 C-3.67 9.68 -3.34 8.36 -3 7 C-2.34 7 -1.68 7 -1 7 C-0.67 4.69 -0.34 2.38 0 0 Z " fill="#DAE3D9" transform="translate(550,480)"/>
<path d="M0 0 C70.62 0 141.24 0 214 0 C207.04 6.96 207.04 6.96 201.625 8.8125 C197.83868413 10.52535718 195.04428773 13.21013401 192 16 C191.6875 12.6875 191.6875 12.6875 192 9 C194.39740918 7.04421883 195.87586608 6 199 6 C199.33 4.68 199.66 3.36 200 2 C134 2 68 2 0 2 C0 1.34 0 0.68 0 0 Z " fill="#6C8275" transform="translate(464,686)"/>
<path d="M0 0 C69.63 0 139.26 0 211 0 C211.33 1.32 211.66 2.64 212 4 C208.01588492 5.31825777 203.97911879 5.13284812 199.83496094 5.11352539 C199.0150769 5.11367142 198.19519287 5.11381744 197.35046387 5.1139679 C194.64507384 5.11327218 191.93975298 5.10549572 189.234375 5.09765625 C187.35679156 5.09579086 185.47920763 5.09436753 183.60162354 5.09336853 C178.66311293 5.08955289 173.72463179 5.07973071 168.78613281 5.06866455 C163.74544676 5.05842996 158.70475595 5.05386652 153.6640625 5.04882812 C143.77602873 5.03810761 133.88801682 5.0210426 124 5 C124 4.67 124 4.34 124 4 C134.56 3.67 145.12 3.34 156 3 C145.758117 2.29559034 135.60116458 1.84190097 125.33203125 1.79467773 C123.95037571 1.78505959 122.56872287 1.7750475 121.18707275 1.76467896 C117.49394071 1.73804893 113.80079642 1.71681735 110.10762405 1.69667697 C106.22659426 1.67455339 102.34560031 1.64729588 98.46459961 1.62062073 C91.14113019 1.57104533 83.8176405 1.5259787 76.49413204 1.48259836 C68.14564945 1.43292214 59.79720287 1.37811841 51.44875526 1.32291877 C34.29920359 1.20963961 17.1496183 1.10268652 0 1 C0 0.67 0 0.34 0 0 Z " fill="#EAFCF2" transform="translate(468,681)"/>
<path d="M0 0 C55.11 0 110.22 0 167 0 C168 7 168 7 166.97333622 8.91411114 C164.07519395 10.50890293 161.72737465 10.37468165 158.42662048 10.3742218 C157.75576575 10.37819621 157.08491102 10.38217061 156.39372736 10.38626546 C154.14109555 10.39590616 151.88908901 10.38406029 149.63647461 10.37231445 C148.02353175 10.37474182 146.41059039 10.37846061 144.7976532 10.38337708 C140.41345878 10.39279653 136.0294872 10.38335225 131.64531016 10.37004495 C127.063146 10.3587461 122.48099306 10.36283669 117.89881897 10.36479187 C110.20423736 10.36567525 102.50974378 10.35458446 94.81518555 10.33618164 C85.91000678 10.31500582 77.00495694 10.31150546 68.09975809 10.3177436 C59.54341736 10.32343122 50.9871222 10.3177992 42.43078804 10.30657005 C38.78448205 10.30191684 35.13820384 10.30105332 31.49189568 10.3031559 C27.20160045 10.30503467 22.91143711 10.29696673 18.62117195 10.2810955 C17.04332144 10.2768404 15.46545757 10.27601029 13.88760376 10.27878571 C11.74038803 10.28199057 9.59357062 10.27296921 7.44639587 10.26069641 C6.24274352 10.25864354 5.03909117 10.25659067 3.7989645 10.25447559 C1 10 1 10 -1 8 C-1.33333333 2.66666667 -1.33333333 2.66666667 0 0 Z M3 4 C3.33 5.65 3.66 7.3 4 9 C24.53155619 9.02334787 45.0631102 9.04098848 65.59467697 9.05181217 C75.12757562 9.0569711 84.66046602 9.06400617 94.19335938 9.07543945 C102.50105267 9.08539856 110.80874 9.09185636 119.1164391 9.09408849 C123.51634157 9.09539351 127.91622696 9.09846621 132.31612396 9.10573006 C136.45613608 9.11250958 140.59612406 9.114613 144.7361412 9.11310768 C146.25671647 9.11338314 147.77729253 9.11537681 149.29786301 9.11920547 C151.37216876 9.12417288 153.4463831 9.122987 155.52069092 9.12025452 C156.68215008 9.12117631 157.84360924 9.1220981 159.04026413 9.12304783 C161.55088156 9.01867162 163.61225004 8.73723952 166 8 C166.33 6.02 166.66 4.04 167 2 C163.6011443 0.96898055 160.49708069 0.87425625 156.9541626 0.87301636 C155.71493042 0.87019653 154.47569824 0.86737671 153.19891357 0.86447144 C151.82824692 0.86641572 150.45758042 0.86846389 149.08691406 0.87060547 C147.64119421 0.86925018 146.19547471 0.86746952 144.74975586 0.86529541 C140.82395234 0.86073469 136.89817509 0.86250549 132.9723711 0.8656745 C128.8601404 0.86820704 124.74791194 0.86585788 120.63568115 0.86428833 C113.72554115 0.86246844 106.81541182 0.86486738 99.90527344 0.86962891 C91.92782553 0.87506257 83.95040322 0.87331466 75.97295594 0.8678025 C69.11760307 0.86325597 62.26225788 0.86262862 55.40690398 0.86524117 C51.31545706 0.86679658 47.22402213 0.86701809 43.13257599 0.86370468 C39.28140575 0.8608039 35.43026828 0.86284208 31.57910156 0.86859894 C30.16985885 0.8699151 28.76061335 0.86955197 27.35137177 0.86733627 C14.72942782 0.27194835 14.72942782 0.27194835 3 4 Z " fill="#DAEEE2" transform="translate(505,588)"/>
<path d="M0 0 C1.33411729 2.66823459 0.78249476 3.94634058 0.19555664 6.85766602 C-0.00472641 7.86954483 -0.20500946 8.88142365 -0.41136169 9.92396545 C-0.63526077 11.02284592 -0.85915985 12.12172638 -1.08984375 13.25390625 C-1.54889265 15.57615912 -2.00787488 17.89842517 -2.46679688 20.22070312 C-3.19950101 23.88569362 -3.93500449 27.55010367 -4.67260742 31.21411133 C-5.38134955 34.74682633 -6.07972273 38.28148097 -6.77734375 41.81640625 C-6.9992186 42.9011171 -7.22109344 43.98582794 -7.44969177 45.10340881 C-9.66639147 55.58031304 -9.66639147 55.58031304 -7.8125 65.875 C-5.78703103 68.24968775 -3.66242376 69.41693723 -1 71 C-1 71.99 -1 72.98 -1 74 C-3.0625 74.875 -3.0625 74.875 -6 75 C-10.59348922 72.23996356 -13.4049194 69.14566868 -15 64 C-16.01702562 55.37509441 -14.2720107 46.99880023 -12.52685547 38.59082031 C-11.42140106 33.15473033 -10.41128942 27.69961464 -9.375 22.25 C-8.94683062 20.00491827 -8.51723363 17.76010815 -8.0859375 15.515625 C-7.9007959 14.54915039 -7.7156543 13.58267578 -7.52490234 12.58691406 C-7.07528409 10.37102798 -6.57100288 8.18723137 -6 6 C-5.01 6 -4.02 6 -3 6 C-2.690625 5.195625 -2.38125 4.39125 -2.0625 3.5625 C-1 1 -1 1 0 0 Z " fill="#E2F2E6" transform="translate(463,610)"/>
<path d="M0 0 C0 1.98 0 3.96 0 6 C-0.495 5.01 -0.495 5.01 -1 4 C-1.66 4 -2.32 4 -3 4 C-3 4.66 -3 5.32 -3 6 C-3.66 6 -4.32 6 -5 6 C-5 6.66 -5 7.32 -5 8 C-5.66 8 -6.32 8 -7 8 C-7.2165625 8.9590625 -7.2165625 8.9590625 -7.4375 9.9375 C-8 12 -8 12 -9 13 C-9.44355899 15.11543518 -9.8861889 17.23106927 -10.32421875 19.34765625 C-11.03402711 22.13355148 -12.03340667 24.65487524 -13.125 27.3125 C-15.39610531 33.25101981 -15.39482968 38.71562765 -15 45 C-20.51986122 45.93464137 -25.83150229 46.13707308 -31.42358398 46.11352539 C-32.80037071 46.11374443 -32.80037071 46.11374443 -34.20497131 46.1139679 C-37.21870339 46.11327493 -40.23237256 46.10551151 -43.24609375 46.09765625 C-45.34359198 46.09578988 -47.44109065 46.09436701 -49.53858948 46.09336853 C-55.04423233 46.0895606 -60.54984858 46.07974509 -66.05548096 46.06866455 C-71.67956177 46.0584133 -77.3036469 46.05386296 -82.92773438 46.04882812 C-93.95183457 46.03812123 -104.97591507 46.02106559 -116 46 C-116 45.67 -116 45.34 -116 45 C-86.63 44.67 -57.26 44.34 -27 44 C-26.01 42.02 -25.02 40.04 -24 38 C-21.3125 37.125 -21.3125 37.125 -19 37 C-18.4465236 34.92446352 -18 33.15634036 -18 31 C-18 30.34 -18 29.68 -18 29 C-17.34 29 -16.68 29 -16 29 C-15.67 26.36 -15.34 23.72 -15 21 C-15.99 21.66 -16.98 22.32 -18 23 C-20.1875 22.625 -20.1875 22.625 -22 22 C-20.49701413 17.12668217 -17.72109275 14.08087896 -14.3125 10.4375 C-13.80783203 9.87353516 -13.30316406 9.30957031 -12.78320312 8.72851562 C-4.70805007 0 -4.70805007 0 0 0 Z " fill="#C5D4C9" transform="translate(472,538)"/>
<path d="M0 0 C0.33 0 0.66 0 1 0 C0.60485049 4.88737556 0.13622248 9.61411638 -1.0625 14.375 C-3.91601373 28.12374795 -2.1709946 42.48552302 1 56 C-0.32 56 -1.64 56 -3 56 C-3.33 53.36 -3.66 50.72 -4 48 C-4.66 48 -5.32 48 -6 48 C-6.33 46.02 -6.66 44.04 -7 42 C-6.01 41.505 -6.01 41.505 -5 41 C-4.34444881 38.47266765 -4.34444881 38.47266765 -4 36 C-4.99 36 -5.98 36 -7 36 C-6.835 35.484375 -6.67 34.96875 -6.5 34.4375 C-5.84951 31.26636124 -5.9379266 28.22781666 -6 25 C-6.66 27.31 -7.32 29.62 -8 32 C-8.33 32 -8.66 32 -9 32 C-9.33 29.36 -9.66 26.72 -10 24 C-11.65 25.32 -13.3 26.64 -15 28 C-15.25 25.8125 -15.25 25.8125 -15 23 C-13.66666667 21.33333333 -12.33333333 19.66666667 -11 18 C-11 17.154375 -11 16.30875 -11 15.4375 C-11 13 -11 13 -9.0625 11 C-8.381875 10.34 -7.70125 9.68 -7 9 C-6.20318682 6.35815459 -6.20318682 6.35815459 -6 4 C-4.02 3.34 -2.04 2.68 0 2 C0 1.34 0 0.68 0 0 Z " fill="#5B7C68" transform="translate(287,480)"/>
<path d="M0 0 C2.93047079 0.00543732 5.86079311 -0.00002623 8.79125977 -0.00634766 C10.68383822 -0.00568795 12.57641659 -0.00440901 14.46899414 -0.00244141 C15.33054611 -0.00446564 16.19209808 -0.00648987 17.07975769 -0.00857544 C22.20936456 0.01116777 27.12947847 0.39416182 32.20727539 1.13037109 C32.20727539 1.46037109 32.20727539 1.79037109 32.20727539 2.13037109 C37.48727539 2.46037109 42.76727539 2.79037109 48.20727539 3.13037109 C48.20727539 3.46037109 48.20727539 3.79037109 48.20727539 4.13037109 C-4.59272461 4.13037109 -57.39272461 4.13037109 -111.79272461 4.13037109 C-111.79272461 3.80037109 -111.79272461 3.47037109 -111.79272461 3.13037109 C-87.70272461 2.80037109 -63.61272461 2.47037109 -38.79272461 2.13037109 C-38.79272461 1.80037109 -38.79272461 1.47037109 -38.79272461 1.13037109 C-25.85305624 0.30453488 -12.96539283 -0.02864793 0 0 Z " fill="#497858" transform="translate(631.792724609375,554.86962890625)"/>
<path d="M0 0 C0.33 0.66 0.66 1.32 1 2 C1.88107422 1.96970703 2.76214844 1.93941406 3.66992188 1.90820312 C80.8381394 -0.67068332 80.8381394 -0.67068332 117 3 C117 3.33 117 3.66 117 4 C77.73 4 38.46 4 -2 4 C-2 3.34 -2 2.68 -2 2 C-1.34 2 -0.68 2 0 2 C0 1.34 0 0.68 0 0 Z " fill="#D3E3DA" transform="translate(499,620)"/>
<path d="M0 0 C0.33 0 0.66 0 1 0 C0.4262611 9.08923201 -0.61050442 18.00200434 -2 27 C-5.96 27 -9.92 27 -14 27 C-12.96066299 21.08377394 -11.97592316 16.26509483 -9 11 C-8.26446745 9.54486701 -7.53552853 8.08638629 -6.8125 6.625 C-6.20833333 5.41666667 -5.60416667 4.20833333 -5 3 C-3.68 3 -2.36 3 -1 3 C-0.67 2.01 -0.34 1.02 0 0 Z " fill="#BECEBB" transform="translate(542,491)"/>
<path d="M0 0 C1.98 0 3.96 0 6 0 C5.40625594 7.48823364 4.21054938 14.76076803 2.75 22.125 C2.53110107 23.2399585 2.31220215 24.35491699 2.08666992 25.50366211 C1.62801951 27.82865806 1.16664607 30.1531184 0.70263672 32.47705078 C0.23411124 34.82619 -0.2304066 37.17613207 -0.69091797 39.52685547 C-1.34715591 42.87399873 -2.01535819 46.21851847 -2.6875 49.5625 C-2.88956055 50.59713379 -3.09162109 51.63176758 -3.29980469 52.69775391 C-3.49348633 53.64440918 -3.68716797 54.59106445 -3.88671875 55.56640625 C-4.05389404 56.40115479 -4.22106934 57.23590332 -4.39331055 58.09594727 C-4.59351807 58.72428467 -4.79372559 59.35262207 -5 60 C-5.99 60.495 -5.99 60.495 -7 61 C-8 53.25 -8 53.25 -8 51 C-7.01 51 -6.02 51 -5 51 C-4.74969023 48.58380177 -4.74969023 48.58380177 -5 46 C-5.99 45.34 -6.98 44.68 -8 44 C-7.67 43.34 -7.34 42.68 -7 42 C-7.66 41.34 -8.32 40.68 -9 40 C-7.68 40 -6.36 40 -5 40 C-0.78944432 30.07511876 0.7703756 20.62225362 -1 10 C-0.01 9.67 0.98 9.34 2 9 C1.34 8.67 0.68 8.34 0 8 C0 5.36 0 2.72 0 0 Z " fill="#516F5F" transform="translate(457,584)"/>
<path d="M0 0 C0.66 0 1.32 0 2 0 C1.67 3.3 1.34 6.6 1 10 C0.34 10 -0.32 10 -1 10 C-1.24234375 10.75023437 -1.4846875 11.50046875 -1.734375 12.2734375 C-3.68287027 18.22384229 -5.75128561 24.06681818 -8.16796875 29.84375 C-9.78371508 34.03103625 -10.10100913 36.59596348 -9 41 C-9.99 41 -10.98 41 -12 41 C-14.38537417 36.22925166 -13.52261092 30.59613298 -11.91796875 25.6953125 C-11.01923611 23.4523659 -10.10270566 21.21646363 -9.16796875 18.98828125 C-8.20591822 16.52684761 -7.62969589 14.59789807 -7.375 12 C-6.9543703 8.63496239 -6.03857649 6.69092097 -4 4 C-3.34 4 -2.68 4 -2 4 C-2 3.34 -2 2.68 -2 2 C-1.34 2 -0.68 2 0 2 C0 1.34 0 0.68 0 0 Z " fill="#AFC0B4" transform="translate(469,542)"/>
<path d="M0 0 C15.48112783 -0.02333859 30.96225435 -0.04098391 46.44339561 -0.05181217 C53.63121503 -0.05697308 60.81902353 -0.06401189 68.00683594 -0.07543945 C74.27019115 -0.08539253 80.53353845 -0.09185492 86.79690135 -0.09408849 C90.11468721 -0.09539454 93.43244512 -0.09899419 96.75022507 -0.10573006 C100.44987096 -0.11294526 104.14946935 -0.11399073 107.84912109 -0.11352539 C108.95466843 -0.11712067 110.06021576 -0.12071594 111.19926453 -0.12442017 C112.20329819 -0.1230455 113.20733185 -0.12167084 114.24179077 -0.12025452 C115.55534577 -0.12163721 115.55534577 -0.12163721 116.89543724 -0.12304783 C119 0 119 0 121 1 C121 2.98 121 4.96 121 7 C120.814375 6.360625 120.62875 5.72125 120.4375 5.0625 C119.12522606 2.67833124 119.12522606 2.67833124 116.07746887 2.38116455 C111.17151589 1.81583961 106.25542318 1.84448447 101.32299805 1.83886719 C100.27180283 1.83390228 99.2206076 1.82893738 98.13755798 1.82382202 C94.67893816 1.80927834 91.22036405 1.80241479 87.76171875 1.796875 C85.35512796 1.79112129 82.94853718 1.78536359 80.54194641 1.77960205 C75.50769844 1.76911722 70.47346633 1.76325671 65.43920898 1.75976562 C58.97469202 1.75425722 52.51038318 1.73016884 46.04593182 1.70179367 C41.081562 1.68322443 36.11724319 1.67796496 31.15284157 1.67642975 C28.76810367 1.67339454 26.38336684 1.66533701 23.99866295 1.65224457 C20.67561985 1.63528844 17.35309746 1.63703764 14.0300293 1.64355469 C13.0383374 1.6343399 12.04664551 1.62512512 11.02490234 1.6156311 C10.1235405 1.62120026 9.22217865 1.62676941 8.29350281 1.63250732 C7.50800899 1.63104076 6.72251516 1.6295742 5.9132185 1.6280632 C4.96617534 1.81217192 4.96617534 1.81217192 4 2 C1.81509993 4.67642489 1.81509993 4.67642489 2 7 C1.01 7 0.02 7 -1 7 C-0.67 4.69 -0.34 2.38 0 0 Z " fill="#E8FDF0" transform="translate(497,615)"/>
<path d="M0 0 C22.11 0 44.22 0 67 0 C66.67 0.66 66.34 1.32 66 2 C54.00212797 2.80004038 42.0586503 3.16008029 30.03442383 3.13037109 C27.38031624 3.12488173 24.72636896 3.13042539 22.07226562 3.13671875 C20.38020796 3.13605997 18.6881504 3.13478299 16.99609375 3.1328125 C16.20464462 3.13483673 15.4131955 3.13686096 14.59776306 3.13894653 C9.11503066 3.11503066 9.11503066 3.11503066 8 2 C6.65252916 1.76924918 5.29622435 1.58846937 3.9375 1.4375 C2.638125 1.293125 1.33875 1.14875 0 1 C0 0.67 0 0.34 0 0 Z " fill="#48795C" transform="translate(608,570)"/>
<path d="M0 0 C0.99 0.33 1.98 0.66 3 1 C2.73735352 1.48073975 2.47470703 1.96147949 2.20410156 2.45678711 C-1.34619857 9.5777633 -2.27235961 16.7293567 -3.25 24.5625 C-3.42273438 25.85736328 -3.59546875 27.15222656 -3.7734375 28.48632812 C-4.19452215 31.65615976 -4.60302531 34.82707448 -5 38 C-5.66 37.67 -6.32 37.34 -7 37 C-8.485 37.495 -8.485 37.495 -10 38 C-8.93955231 18.88403511 -8.93955231 18.88403511 -7 13 C-6.01 12.34 -5.02 11.68 -4 11 C-3.27617533 8.94074861 -3.27617533 8.94074861 -3 7 C-2.34 7 -1.68 7 -1 7 C-0.67 4.69 -0.34 2.38 0 0 Z " fill="#E5F4E8" transform="translate(550,480)"/>
<path d="M0 0 C0.33 0 0.66 0 1 0 C0.45136137 6.7857936 -0.54267938 13.35009036 -2 20 C-2.33 20 -2.66 20 -3 20 C-3.33 18.02 -3.66 16.04 -4 14 C-4.226875 14.721875 -4.45375 15.44375 -4.6875 16.1875 C-6.26766076 19.57355877 -8.27191325 21.46677659 -11 24 C-11.763125 24.763125 -12.52625 25.52625 -13.3125 26.3125 C-13.869375 26.869375 -14.42625 27.42625 -15 28 C-15.25 25.8125 -15.25 25.8125 -15 23 C-13.66666667 21.33333333 -12.33333333 19.66666667 -11 18 C-11 17.154375 -11 16.30875 -11 15.4375 C-11 13 -11 13 -9.0625 11 C-8.381875 10.34 -7.70125 9.68 -7 9 C-6.20318682 6.35815459 -6.20318682 6.35815459 -6 4 C-4.02 3.34 -2.04 2.68 0 2 C0 1.34 0 0.68 0 0 Z " fill="#748F7F" transform="translate(287,480)"/>
<path d="M0 0 C0 1.98 0 3.96 0 6 C-0.33 5.34 -0.66 4.68 -1 4 C-1.66 4 -2.32 4 -3 4 C-3 4.66 -3 5.32 -3 6 C-3.66 6 -4.32 6 -5 6 C-5 6.66 -5 7.32 -5 8 C-5.66 8 -6.32 8 -7 8 C-7.12375 8.5775 -7.2475 9.155 -7.375 9.75 C-8.00648824 12.02335767 -8.88858191 13.9253529 -10 16 C-10.66 16 -11.32 16 -12 16 C-12.061875 16.598125 -12.12375 17.19625 -12.1875 17.8125 C-13 20 -13 20 -15.3125 21.8125 C-18 23 -18 23 -20.3125 22.6875 C-20.869375 22.460625 -21.42625 22.23375 -22 22 C-20.49701413 17.12668217 -17.72109275 14.08087896 -14.3125 10.4375 C-13.80783203 9.87353516 -13.30316406 9.30957031 -12.78320312 8.72851562 C-4.70805007 0 -4.70805007 0 0 0 Z " fill="#D4DDD4" transform="translate(472,538)"/>
<path d="M0 0 C3.27272727 6.54545455 3.27272727 6.54545455 2.4375 11 C1.95271919 14.32421129 2.40373722 15.18377973 4 18 C4.92748047 17.99476318 5.85496094 17.98952637 6.81054688 17.98413086 C10.28451166 17.96698673 13.75843082 17.95450035 17.23242188 17.94506836 C18.72982497 17.94007057 20.22722327 17.9332701 21.72460938 17.92456055 C23.88933505 17.91229377 26.05399565 17.90672603 28.21875 17.90234375 C30.1668457 17.89448853 30.1668457 17.89448853 32.15429688 17.88647461 C36.18086673 18.0053392 40.01415096 18.43973231 44 19 C44 19.33 44 19.66 44 20 C42.74864258 19.99476318 41.49728516 19.98952637 40.20800781 19.98413086 C35.56380936 19.96602609 30.91961403 19.95454791 26.27539062 19.94506836 C24.26561966 19.94004069 22.25585236 19.93321767 20.24609375 19.92456055 C17.35676165 19.91242649 14.46747793 19.90675601 11.578125 19.90234375 C10.23104462 19.89460182 10.23104462 19.89460182 8.85675049 19.88670349 C8.01618103 19.88662796 7.17561157 19.88655243 6.30957031 19.88647461 C5.20370575 19.88314369 5.20370575 19.88314369 4.07550049 19.87974548 C1.65011765 19.95571096 1.65011765 19.95571096 -2 21 C-1.01 10.605 -1.01 10.605 0 0 Z " fill="#518160" transform="translate(547,496)"/>
<path d="M0 0 C2.93047079 0.00543732 5.86079311 -0.00002623 8.79125977 -0.00634766 C10.68383822 -0.00568795 12.57641659 -0.00440901 14.46899414 -0.00244141 C15.33054611 -0.00446564 16.19209808 -0.00648987 17.07975769 -0.00857544 C22.20936456 0.01116777 27.12947847 0.39416182 32.20727539 1.13037109 C32.20727539 1.46037109 32.20727539 1.79037109 32.20727539 2.13037109 C8.48424877 2.90727996 -15.0761555 3.34441717 -38.79272461 2.13037109 C-38.79272461 1.80037109 -38.79272461 1.47037109 -38.79272461 1.13037109 C-25.85305624 0.30453488 -12.96539283 -0.02864793 0 0 Z " fill="#4E805D" transform="translate(631.792724609375,554.86962890625)"/>
<path d="M0 0 C0.66 0 1.32 0 2 0 C4.06440531 4.1839665 4.0902668 7.20635871 3.625 11.8125 C3.45871094 13.55466797 3.45871094 13.55466797 3.2890625 15.33203125 C3.19367187 16.21246094 3.09828125 17.09289062 3 18 C2.01 18 1.02 18 0 18 C-1.53905905 20.82160825 -2.3957067 23.3490421 -3 26.5 C-3.60070309 29.63223755 -4.28415516 32.28324568 -6 35 C-7.485 35.495 -7.485 35.495 -9 36 C-9 35.34 -9 34.68 -9 34 C-8.34 34 -7.68 34 -7 34 C-6.8860791 33.34733154 -6.7721582 32.69466309 -6.65478516 32.0222168 C-5.39108131 24.91341113 -3.93064064 17.86262719 -2.375 10.8125 C-2.03082031 9.24145508 -2.03082031 9.24145508 -1.6796875 7.63867188 C-1.12152634 5.09206157 -0.56160856 2.54585183 0 0 Z " fill="#E2F0E5" transform="translate(699,638)"/>
<path d="M0 0 C0.99 0.33 1.98 0.66 3 1 C2.979375 1.804375 2.95875 2.60875 2.9375 3.4375 C2.70366379 5.93354885 2.70366379 5.93354885 4 7 C4.5775 7.94875 5.155 8.8975 5.75 9.875 C8.01170522 13.01625726 9.738395 14.09739708 13 16 C13 16.99 13 17.98 13 19 C10.9375 19.875 10.9375 19.875 8 20 C4.43003267 17.85495525 1.71433584 15.18020704 -0.4375 11.625 C-1.21920113 7.9770614 -1.18658926 4.73178523 -1 1 C-0.67 0.67 -0.34 0.34 0 0 Z " fill="#ECF6EF" transform="translate(449,665)"/>
<path d="M0 0 C4.62 0 9.24 0 14 0 C10.24954639 3.96476525 6.83967252 7.02853309 1.625 8.8125 C-2.16131587 10.52535718 -4.95571227 13.21013401 -8 16 C-8.3125 12.6875 -8.3125 12.6875 -8 9 C-5.60259082 7.04421883 -4.12413392 6 -1 6 C-1 5.34 -1 4.68 -1 4 C0.32 3.34 1.64 2.68 3 2 C2.01 1.34 1.02 0.68 0 0 Z " fill="#74917F" transform="translate(664,686)"/>
<path d="M0 0 C1.32 0 2.64 0 4 0 C3.67 4.29 3.34 8.58 3 13 C-0.96 13 -4.92 13 -9 13 C-7 8 -7 8 -4 6 C-2.9590934 4.35857037 -1.95495674 2.69287785 -1 1 C-0.67 0.67 -0.34 0.34 0 0 Z " fill="#7D9786" transform="translate(349,424)"/>
<path d="M0 0 C1.98 0 3.96 0 6 0 C5.51679152 6.2054142 4.66681876 11.99945246 3 18 C2.01 18 1.02 18 0 18 C-0.33 15.36 -0.66 12.72 -1 10 C-0.01 9.67 0.98 9.34 2 9 C1.34 8.67 0.68 8.34 0 8 C0 5.36 0 2.72 0 0 Z " fill="#476954" transform="translate(457,584)"/>
<path d="M0 0 C2.70620491 2.51290456 4.68353848 5.04849817 6.66015625 8.15234375 C9.14823713 11.58342904 12.1024722 14.62244087 14.9765625 17.73046875 C17 20 17 20 19 23 C16.69 23 14.38 23 12 23 C12 21.02 12 19.04 12 17 C11.34 17 10.68 17 10 17 C10 16.34 10 15.68 10 15 C8.02 15 6.04 15 4 15 C4 12.36 4 9.72 4 7 C2.68 6.67 1.36 6.34 0 6 C-0.38218767 4.34385343 -0.71395102 2.67542976 -1 1 C-0.67 0.67 -0.34 0.34 0 0 Z " fill="#597967" transform="translate(292,545)"/>
<path d="M0 0 C0.66 0 1.32 0 2 0 C1.67 3.3 1.34 6.6 1 10 C0.67 9.01 0.34 8.02 0 7 C-0.99 7 -1.98 7 -3 7 C-3.10957031 7.56847656 -3.21914063 8.13695312 -3.33203125 8.72265625 C-4.37578389 13.80564675 -5.8089769 18.2673901 -8 23 C-8.52169313 24.29131964 -9.04254116 25.58298106 -9.5625 26.875 C-11 30 -11 30 -13 31 C-10.28723404 21.68617021 -10.28723404 21.68617021 -8.875 18.3125 C-7.84306916 15.85907251 -7.84306916 15.85907251 -7.5625 12.5 C-6.98836795 8.92762279 -6.17174593 6.86670463 -4 4 C-3.34 4 -2.68 4 -2 4 C-2 3.34 -2 2.68 -2 2 C-1.34 2 -0.68 2 0 2 C0 1.34 0 0.68 0 0 Z " fill="#BECBBF" transform="translate(469,542)"/>
<path d="M0 0 C1.31731673 2.17601209 2.0676496 3.43916303 1.7578125 6.0078125 C1.54898437 6.70648437 1.34015625 7.40515625 1.125 8.125 C-0.17543978 13.1350276 -0.19343381 17.85251141 0 23 C-0.66 23 -1.32 23 -2 23 C-1.67 24.65 -1.34 26.3 -1 28 C-2.65 29.32 -4.3 30.64 -6 32 C-4.98804347 24.38056257 -3.84139648 16.80639309 -2.4375 9.25 C-2.24740356 8.21359375 -2.24740356 8.21359375 -2.0534668 7.15625 C-1.12394681 2.24789361 -1.12394681 2.24789361 0 0 Z " fill="#638B72" transform="translate(470,579)"/>
<path d="M0 0 C0.33 0 0.66 0 1 0 C1.18451025 12.66970387 1.18451025 12.66970387 0 18 C-1.65 18 -3.3 18 -5 18 C-6.1811027 14.45669189 -5.73184189 13.10964447 -4.75 9.5625 C-4.49734375 8.61503906 -4.2446875 7.66757812 -3.984375 6.69140625 C-2.99533347 3.9872411 -1.89427565 2.15397473 0 0 Z " fill="#A0B59F" transform="translate(540,500)"/>
<path d="M0 0 C0.33 0 0.66 0 1 0 C1.12867289 8.06350113 0.79681084 15.97497656 0 24 C0.66 24 1.32 24 2 24 C4.48063781 34.37357631 4.48063781 34.37357631 3 40 C-1.0840817 32.3123168 -1.17976773 24.28642692 -1.1875 15.75 C-1.18830566 14.88632812 -1.18911133 14.02265625 -1.18994141 13.1328125 C-1.15090226 8.64938313 -0.90103645 4.41147448 0 0 Z " fill="#E3F0E9" transform="translate(285,494)"/>
<path d="M0 0 C0.7425 0.763125 1.485 1.52625 2.25 2.3125 C6.37006966 6.33893172 9.43441051 8.35562129 15 10 C11.54970958 12.30019361 10.05445642 12.43132515 6 12 C5.34 11.01 4.68 10.02 4 9 C0.88214887 9.64644661 0.88214887 9.64644661 0 12 C0 8.04 0 4.08 0 0 Z " fill="#507562" transform="translate(448,676)"/>
<path d="M0 0 C2.1519437 3.22791555 2.20086443 4.28400809 2 8 C1.34 8 0.68 8 0 8 C-0.15855469 8.65226562 -0.31710937 9.30453125 -0.48046875 9.9765625 C-2.04703492 15.84469433 -3.68844381 19.68844381 -8 24 C-8.33 24 -8.66 24 -9 24 C-9.25 21.8125 -9.25 21.8125 -9 19 C-7.66666667 17.33333333 -6.33333333 15.66666667 -5 14 C-5 13.154375 -5 12.30875 -5 11.4375 C-5 9 -5 9 -3.0625 7 C-2.381875 6.34 -1.70125 5.68 -1 5 C-0.20318682 2.35815459 -0.20318682 2.35815459 0 0 Z " fill="#759683" transform="translate(281,484)"/>
<path d="M0 0 C0 3 0 3 -1.6875 5 C-4.98329958 9.27563189 -6.88764917 14.05675276 -9 19 C-10.65 18.67 -12.3 18.34 -14 18 C-12.49853841 12.95394871 -9.43322694 9.89020251 -5.875 6.1875 C-5.03001953 5.2912793 -5.03001953 5.2912793 -4.16796875 4.37695312 C-2.7850002 2.91194406 -1.39335215 1.45513688 0 0 Z " fill="#E4EBE4" transform="translate(464,542)"/>
<path d="M0 0 C0.33 0 0.66 0 1 0 C1 2.31 1 4.62 1 7 C0.67 6.34 0.34 5.68 0 5 C-0.99 5 -1.98 5 -3 5 C-3.33 6.32 -3.66 7.64 -4 9 C-4.66 9 -5.32 9 -6 9 C-6.103125 9.7425 -6.20625 10.485 -6.3125 11.25 C-7 14 -7 14 -8.4375 15.75 C-10.80836907 19.16405146 -11.2658744 22.9579908 -12 27 C-12.66 26.67 -13.32 26.34 -14 26 C-12.96732732 20.53290933 -11.71629903 15.91023287 -9 11 C-8.26553516 9.54432781 -7.53654525 8.08588282 -6.8125 6.625 C-6.20833333 5.41666667 -5.60416667 4.20833333 -5 3 C-3.68 3 -2.36 3 -1 3 C-0.67 2.01 -0.34 1.02 0 0 Z " fill="#CFDACC" transform="translate(542,491)"/>
<path d="M0 0 C-1.32 5.28 -2.64 10.56 -4 16 C-4.99 16 -5.98 16 -7 16 C-8.48356761 12.14272421 -7.31383511 9.78693649 -6 6 C-5.83142517 3.24934768 -5.83142517 3.24934768 -6 1 C-3.92446352 0.4465236 -2.15634036 0 0 0 Z " fill="#638F6F" transform="translate(696,656)"/>
<path d="M0 0 C0.78391113 0.16298584 1.56782227 0.32597168 2.37548828 0.49389648 C6.94134675 1.13144361 11.38867498 1.12377753 15.9921875 1.09765625 C16.93812775 1.0962413 17.88406799 1.09482635 18.8586731 1.09336853 C21.86414829 1.08779484 24.86954753 1.0752472 27.875 1.0625 C29.91926975 1.0574816 31.96354068 1.05291929 34.0078125 1.04882812 C39.00523736 1.03783403 44.00260583 1.02058757 49 1 C49 1.33 49 1.66 49 2 C23.755 2.495 23.755 2.495 -2 3 C-1.34 2.01 -0.68 1.02 0 0 Z " fill="#598C6E" transform="translate(503,611)"/>
<path d="M0 0 C-0.33 2.31 -0.66 4.62 -1 7 C-4.62528568 7.20140476 -6.86501708 6.85776765 -10 5 C-9.625 3.0625 -9.625 3.0625 -9 1 C-6.04335481 -0.4783226 -3.25770263 -0.06032783 0 0 Z " fill="#96AA9D" transform="translate(439,384)"/>
<path d="M0 0 C0.33 0 0.66 0 1 0 C1.33560317 5.48151838 0.66944096 10.55706592 -0.375 15.9375 C-0.56412964 16.94985718 -0.56412964 16.94985718 -0.75708008 17.98266602 C-1.10126156 19.67093739 -1.54328207 21.33863614 -2 23 C-2.66 23.33 -3.32 23.66 -4 24 C-4.51007183 15.08791171 -3.6671644 8.16926356 0 0 Z " fill="#A0ADA4" transform="translate(468,549)"/>
<path d="M0 0 C0.21192221 5.19209404 -0.4087311 9.126739 -2 14 C-2.66 13.67 -3.32 13.34 -4 13 C-4.66 13.66 -5.32 14.32 -6 15 C-5.70703125 12.94921875 -5.4140625 10.8984375 -5.12109375 8.84765625 C-5.08113281 8.23792969 -5.04117188 7.62820313 -5 7 C-5.33 6.67 -5.66 6.34 -6 6 C-5.6875 3.5 -5.6875 3.5 -5 1 C-3 0 -3 0 0 0 Z " fill="#507D5A" transform="translate(719,539)"/>
<path d="M0 0 C0.763125 0.61875 1.52625 1.2375 2.3125 1.875 C4.99625809 4.05597052 4.99625809 4.05597052 8 6 C8 6.99 8 7.98 8 9 C5.8125 9.8125 5.8125 9.8125 3 10 C0.1875 7.5625 0.1875 7.5625 -2 5 C-1.34 3.35 -0.68 1.7 0 0 Z " fill="#E9F1EB" transform="translate(454,675)"/>
<path d="M0 0 C0.66 0.33 1.32 0.66 2 1 C1.071875 2.3303125 1.071875 2.3303125 0.125 3.6875 C-1.9987098 6.76871606 -1.9987098 6.76871606 -3 9.5 C-4.48913081 13.22282702 -6.31798949 17.15899475 -10 19 C-8.85228317 14.49741857 -7.5257538 10.89387044 -5 7 C-4.67 6.29875 -4.34 5.5975 -4 4.875 C-2.92221791 2.85415857 -1.68675288 1.53341171 0 0 Z " fill="#EDEEEB" transform="translate(534,493)"/>
<path d="M0 0 C0.66 0 1.32 0 2 0 C1.34309381 3.78239671 0.279869 7.21841526 -1.0625 10.8125 C-1.42472656 11.78832031 -1.78695313 12.76414062 -2.16015625 13.76953125 C-2.57587891 14.87361328 -2.57587891 14.87361328 -3 16 C-3.66 15.01 -4.32 14.02 -5 13 C-6.98 13.99 -6.98 13.99 -9 15 C-8.1875 12.5625 -8.1875 12.5625 -7 10 C-6.01 9.67 -5.02 9.34 -4 9 C-2.77479736 5.99152582 -2.77479736 5.99152582 -2 3 C-1.34 3 -0.68 3 0 3 C0 2.01 0 1.02 0 0 Z " fill="#89A093" transform="translate(292,469)"/>
<path d="M0 0 C0.350625 0.474375 0.70125 0.94875 1.0625 1.4375 C3.84163543 3.67873825 6.5144717 3.67117658 10 4 C10.33 5.65 10.66 7.3 11 9 C10.67 8.34 10.34 7.68 10 7 C9.34 7 8.68 7 8 7 C8 7.99 8 8.98 8 10 C4.72847271 9.02738378 3.25454871 8.34232413 1.1875 5.5625 C0 3 0 3 0 0 Z " fill="#5C9172" transform="translate(453,670)"/>
<path d="M0 0 C0.66 0.66 1.32 1.32 2 2 C1.9765625 4.3828125 1.9765625 4.3828125 1.625 7.125 C1.51414062 8.03507813 1.40328125 8.94515625 1.2890625 9.8828125 C1.19367188 10.58148437 1.09828125 11.28015625 1 12 C0.34 12 -0.32 12 -1 12 C-1.12375 12.639375 -1.2475 13.27875 -1.375 13.9375 C-1.58125 14.618125 -1.7875 15.29875 -2 16 C-2.66 16.33 -3.32 16.66 -4 17 C-4.28063054 11.48093274 -4.22435852 8.64307627 -1 4 C-0.30420546 1.80869466 -0.30420546 1.80869466 0 0 Z " fill="#EDF9F0" transform="translate(454,642)"/>
<path d="M0 0 C-0.66 4.29 -1.32 8.58 -2 13 C-4 9 -4 9 -5 6 C-5.66 6.99 -6.32 7.98 -7 9 C-6.67 6.03 -6.34 3.06 -6 0 C-2 -1 -2 -1 0 0 Z " fill="#E3EFE5" transform="translate(711,608)"/>
<path d="M0 0 C-0.70125 0.53625 -1.4025 1.0725 -2.125 1.625 C-4.34577018 3.45954928 -6.13560299 5.20909334 -8.0625 7.3125 C-9.5165625 8.6428125 -9.5165625 8.6428125 -11 10 C-13.18359375 9.66796875 -13.18359375 9.66796875 -15 9 C-13.90344712 7.68113228 -12.79746577 6.37009943 -11.6875 5.0625 C-11.07261719 4.33160156 -10.45773437 3.60070312 -9.82421875 2.84765625 C-6.82871121 -0.18633747 -4.05603563 -0.10962258 0 0 Z " fill="#8EA899" transform="translate(683,686)"/>
<path d="M0 0 C3.54243452 1.36591169 6.92627929 2.90931484 10.3125 4.625 C11.63701172 5.29402344 11.63701172 5.29402344 12.98828125 5.9765625 C13.65214844 6.31429687 14.31601562 6.65203125 15 7 C12.83735215 9.16264785 12.01811422 9.82246387 9 10 C7.62150897 8.71340837 6.29470975 7.37086915 5 6 C3.03120677 4.93988057 1.03564133 3.92529151 -1 3 C-0.67 2.01 -0.34 1.02 0 0 Z " fill="#587767" transform="translate(313,570)"/>
<path d="M0 0 C0.66 0 1.32 0 2 0 C1.25403037 7.4596963 -0.36746129 14.68951218 -2 22 C-2.66 22 -3.32 22 -4 22 C-4.625 20.125 -4.625 20.125 -5 18 C-4.34 17.34 -3.68 16.68 -3 16 C-2.35107056 13.24788122 -2.35107056 13.24788122 -1.9375 10.125 C-1.4278321 6.69632506 -0.91330192 3.34607961 0 0 Z " fill="#5D7869" transform="translate(458,602)"/>
<path d="M0 0 C0.33 0 0.66 0 1 0 C1.85458604 5.30074316 2.41154293 9.04999083 0 14 C-0.74259834 16.65142496 -1.36409322 19.32010716 -2 22 C-2.66 22 -3.32 22 -4 22 C-3.48154825 17.16111697 -2.72165782 12.6000661 -1.4765625 7.8984375 C-0.821791 5.29008547 -0.39869147 2.65794315 0 0 Z " fill="#DCF1E1" transform="translate(711,580)"/>
<path d="M0 0 C0.66 0 1.32 0 2 0 C2 1.65 2 3.3 2 5 C1.34 4.67 0.68 4.34 0 4 C-0.33 4.66 -0.66 5.32 -1 6 C-2.32 6 -3.64 6 -5 6 C-5.4021875 7.2065625 -5.4021875 7.2065625 -5.8125 8.4375 C-6.4003125 9.7059375 -6.4003125 9.7059375 -7 11 C-7.99 11.33 -8.98 11.66 -10 12 C-8.60865582 7.57299578 -6.52115858 5.00586708 -3 2 C-2.01 2 -1.02 2 0 2 C0 1.34 0 0.68 0 0 Z " fill="#E2E8E1" transform="translate(542,488)"/>
<path d="M0 0 C0.33 0 0.66 0 1 0 C2.61050328 10.15317287 2.61050328 10.15317287 0.0625 13.6875 C-0.618125 14.120625 -1.29875 14.55375 -2 15 C-2 14.34 -2 13.68 -2 13 C-2.66 13 -3.32 13 -4 13 C-3.67 11.02 -3.34 9.04 -3 7 C-2.34 7 -1.68 7 -1 7 C-0.67 4.69 -0.34 2.38 0 0 Z " fill="#EAF6EA" transform="translate(710,595)"/>
<path d="M0 0 C1.32 0.66 2.64 1.32 4 2 C3.73781251 6.4571874 3.42288711 8.51522698 0.4375 11.9375 C-0.366875 12.618125 -1.17125 13.29875 -2 14 C-1.43393721 9.30976546 -0.81462495 4.65499974 0 0 Z " fill="#698F76" transform="translate(459,632)"/>
<path d="M0 0 C1.32 0 2.64 0 4 0 C4.66 2.31 5.32 4.62 6 7 C3.03 7 0.06 7 -3 7 C-2.01 4.69 -1.02 2.38 0 0 Z " fill="#D2DDCF" transform="translate(448,576)"/>
<path d="M0 0 C1 3 1 3 0.0625 5.1875 C-0.288125 5.785625 -0.63875 6.38375 -1 7 C-1.66 7 -2.32 7 -3 7 C-4.67745682 7.63903117 -6.34561387 8.30341637 -8 9 C-8.33 8.34 -8.66 7.68 -9 7 C-8.34 7 -7.68 7 -7 7 C-6.773125 6.401875 -6.54625 5.80375 -6.3125 5.1875 C-4.66188867 2.43648112 -2.8027919 1.47515363 0 0 Z " fill="#E8EDE6" transform="translate(473,533)"/>
<path d="M0 0 C-3.07999946 3.67230705 -5.2482602 4.56802365 -10 5 C-10 5.66 -10 6.32 -10 7 C-11.98 7.33 -13.96 7.66 -16 8 C-15 6 -15 6 -11.9375 4.875 C-10.4834375 4.441875 -10.4834375 4.441875 -9 4 C-9 3.34 -9 2.68 -9 2 C-5.86501708 0.14223235 -3.62528568 -0.20140476 0 0 Z " fill="#61856E" transform="translate(672,688)"/>
<path d="M0 0 C-1.875 4.75 -1.875 4.75 -3 7 C-3.66 7 -4.32 7 -5 7 C-5.4021875 8.1446875 -5.4021875 8.1446875 -5.8125 9.3125 C-6.94424112 11.87380884 -7.91223401 13.19692938 -10 15 C-10 9.76951793 -7.20507324 5.41773322 -3.875 1.5 C-2 0 -2 0 0 0 Z " fill="#94A39A" transform="translate(451,367)"/>
<path d="M0 0 C0.33 0 0.66 0 1 0 C1 3.96 1 7.92 1 12 C0.34 11.01 -0.32 10.02 -1 9 C-1.33 9.99 -1.66 10.98 -2 12 C-2.66 12 -3.32 12 -4 12 C-3.27272727 3.27272727 -3.27272727 3.27272727 0 0 Z " fill="#ACBAAB" transform="translate(540,500)"/>
<path d="M0 0 C5.28 1.32 10.56 2.64 16 4 C15.67 4.66 15.34 5.32 15 6 C9.1977825 6.36263859 5.36000789 5.25684543 0 3 C0 2.01 0 1.02 0 0 Z " fill="#597767" transform="translate(328,578)"/>
<path d="M0 0 C0.99 0.66 1.98 1.32 3 2 C2.34 2 1.68 2 1 2 C0.87625 2.5775 0.7525 3.155 0.625 3.75 C-0.00648824 6.02335767 -0.88858191 7.9253529 -2 10 C-2.99 9.34 -3.98 8.68 -5 8 C-3.8141763 4.62496331 -2.72426311 2.35277269 0 0 Z " fill="#578065" transform="translate(555,478)"/>
<path d="M0 0 C2 2 2 2 2.3125 5.1875 C1.95717884 9.52241809 0.89596629 12.12906883 -1 16 C-1.66 16 -2.32 16 -3 16 C-2.01 10.72 -1.02 5.44 0 0 Z " fill="#ADBDB2" transform="translate(716,582)"/>
<path d="M0 0 C1.06340773 3.19736014 0.96582104 4.8981025 -0.3125 8 C-0.59351563 8.6909375 -0.87453125 9.381875 -1.1640625 10.09375 C-2.04398261 12.1002968 -2.95616506 14.07292011 -4 16 C-4.92525032 11.68216516 -5.20916644 8.27858892 -4 4 C-1.9375 1.625 -1.9375 1.625 0 0 Z " fill="#94A99D" transform="translate(357,412)"/>
<path d="M0 0 C0.66 0.66 1.32 1.32 2 2 C1.96712417 4.72869407 1.43602229 7.2966618 1 10 C-0.65 8.68 -2.3 7.36 -4 6 C-3.67 5.34 -3.34 4.68 -3 4 C-3.66 3.34 -4.32 2.68 -5 2 C-3.68 2 -2.36 2 -1 2 C-0.67 1.34 -0.34 0.68 0 0 Z " fill="#496A58" transform="translate(453,622)"/>
<path d="M0 0 C2 3 2 3 1.625 6.1875 C1.41875 7.115625 1.2125 8.04375 1 9 C0.01 9 -0.98 9 -2 9 C-2.33 6.36 -2.66 3.72 -3 1 C-2.01 0.67 -1.02 0.34 0 0 Z " fill="#4A725C" transform="translate(459,593)"/>
<path d="M0 0 C0.66 0 1.32 0 2 0 C2 3.3 2 6.6 2 10 C1.67 10 1.34 10 1 10 C0.67 8.02 0.34 6.04 0 4 C-0.4021875 5.2065625 -0.4021875 5.2065625 -0.8125 6.4375 C-1.4003125 7.7059375 -1.4003125 7.7059375 -2 9 C-2.99 9.33 -3.98 9.66 -5 10 C-4.45276317 6.62537285 -3.9451 4.91765 -2 2 C-1.34 2 -0.68 2 0 2 C0 1.34 0 0.68 0 0 Z " fill="#678673" transform="translate(283,490)"/>
<path d="M0 0 C2.8086289 2.8086289 2.72711179 5.11134294 3 9 C1 12 1 12 -2 13 C-1.34 8.71 -0.68 4.42 0 0 Z " fill="#A9BBB0" transform="translate(708,621)"/>
<path d="M0 0 C0 3 0 3 -1 6 C-2.33333333 6.66666667 -3.66666667 7.33333333 -5 8 C-6.70496537 9.62746694 -8.37897032 11.28891311 -10 13 C-10.66 12.67 -11.32 12.34 -12 12 C-8.39424999 7.41086363 -4.52615993 3.67832017 0 0 Z " fill="#EAF1EE" transform="translate(465,354)"/>
<path d="M0 0 C0.33 0 0.66 0 1 0 C1.35133708 2.95123146 1.52850886 5.1497901 -0.078125 7.734375 C-1.3104644 9.22168117 -2.65076768 10.61785957 -4 12 C-4.33 12 -4.66 12 -5 12 C-5.40322225 8.47180533 -5.18545105 7.25723855 -3.0625 4.3125 C-2.381875 3.549375 -1.70125 2.78625 -1 2 C-0.67 1.34 -0.34 0.68 0 0 Z " fill="#718E7C" transform="translate(277,496)"/>
<path d="M0 0 C3.38106236 6.67898383 3.38106236 6.67898383 2.0625 11.25 C1.711875 12.1575 1.36125 13.065 1 14 C0.34 13.34 -0.32 12.68 -1 12 C-0.9765625 9.1796875 -0.9765625 9.1796875 -0.625 5.875 C-0.51414062 4.77929688 -0.40328125 3.68359375 -0.2890625 2.5546875 C-0.14597656 1.29011719 -0.14597656 1.29011719 0 0 Z " fill="#5E886D" transform="translate(547,496)"/>
<path d="M0 0 C0 3.86695678 -1.41909971 6.5088452 -3 10 C-3.99 10 -4.98 10 -6 10 C-6 10.66 -6 11.32 -6 12 C-6.66 12 -7.32 12 -8 12 C-7.6875 10.125 -7.6875 10.125 -7 8 C-6.01 7.34 -5.02 6.68 -4 6 C-2.9590934 4.35857037 -1.95495674 2.69287785 -1 1 C-0.67 0.67 -0.34 0.34 0 0 Z " fill="#88A592" transform="translate(349,424)"/>
<path d="M0 0 C0.99 0.33 1.98 0.66 3 1 C3 2.65 3 4.3 3 6 C1.02 6.99 1.02 6.99 -1 8 C-1.04241723 5.66705225 -1.04092937 3.33297433 -1 1 C-0.67 0.67 -0.34 0.34 0 0 Z " fill="#F5FAF5" transform="translate(449,665)"/>
<path d="M0 0 C0.66 0 1.32 0 2 0 C1.34 5.28 0.68 10.56 0 16 C-0.33 16 -0.66 16 -1 16 C-1.02701408 13.89590361 -1.04640223 11.79170822 -1.0625 9.6875 C-1.07410156 8.51574219 -1.08570313 7.34398437 -1.09765625 6.13671875 C-1 3 -1 3 0 0 Z " fill="#658C73" transform="translate(710,576)"/>
<path d="M0 0 C0.66 0.33 1.32 0.66 2 1 C1.21625 1.763125 0.4325 2.52625 -0.375 3.3125 C-3.07257717 5.90891805 -3.07257717 5.90891805 -5 9 C-6.63495707 10.05104383 -8.29883624 11.05988318 -10 12 C-7.87880087 6.98625661 -4.506805 3.00453667 0 0 Z " fill="#E9EEEB" transform="translate(372,398)"/>
<path d="M0 0 C1.85776765 3.13498292 2.20140476 5.37471432 2 9 C1.01 9.33 0.02 9.66 -1 10 C-1.33 9.67 -1.66 9.34 -2 9 C-1.9140625 7.1875 -1.9140625 7.1875 -1.625 5 C-1.53476562 4.278125 -1.44453125 3.55625 -1.3515625 2.8125 C-1 1 -1 1 0 0 Z " fill="#F1FCF2" transform="translate(706,613)"/>
<path d="M0 0 C0.66 0 1.32 0 2 0 C2 1.65 2 3.3 2 5 C3.32 5.66 4.64 6.32 6 7 C3.36 6.67 0.72 6.34 -2 6 C-1.125 1.125 -1.125 1.125 0 0 Z " fill="#EEF3EE" transform="translate(522,512)"/>
<path d="M0 0 C0.33 0 0.66 0 1 0 C1.027193 1.58323688 1.04648306 3.16661062 1.0625 4.75 C1.07410156 5.63171875 1.08570313 6.5134375 1.09765625 7.421875 C1.00826198 9.7818838 0.66912821 11.74498524 0 14 C-0.66 14 -1.32 14 -2 14 C-1.85795259 12.41632253 -1.71119847 10.83306682 -1.5625 9.25 C-1.48128906 8.36828125 -1.40007812 7.4865625 -1.31640625 6.578125 C-1.03761535 4.30649548 -0.61209423 2.20148177 0 0 Z " fill="#779785" transform="translate(463,612)"/>
<path d="M0 0 C0.66 0.33 1.32 0.66 2 1 C2 3.31 2 5.62 2 8 C0.35 7.67 -1.3 7.34 -3 7 C-2.67 5.35 -2.34 3.7 -2 2 C-1.34 2 -0.68 2 0 2 C0 1.34 0 0.68 0 0 Z " fill="#5F8A70" transform="translate(620,616)"/>
<path d="M0 0 C1.98 0 3.96 0 6 0 C5.01 1.175625 5.01 1.175625 4 2.375 C1.79798559 4.71512812 1.79798559 4.71512812 2 7 C1.01 7 0.02 7 -1 7 C-0.67 4.69 -0.34 2.38 0 0 Z " fill="#E3F4EB" transform="translate(497,615)"/>
<path d="M0 0 C0.66 0.33 1.32 0.66 2 1 C1.071875 2.1446875 1.071875 2.1446875 0.125 3.3125 C-2.05597052 5.99625809 -2.05597052 5.99625809 -4 9 C-4.33 8.01 -4.66 7.02 -5 6 C-5.66 5.67 -6.32 5.34 -7 5 C-4.63707344 2.47411298 -3.33537489 1.11179163 0 0 Z " fill="#668C73" transform="translate(489,524)"/>
<path d="M0 0 C-1.62339805 1.70884005 -3.29319053 3.37446717 -5 5 C-5.66 5 -6.32 5 -7 5 C-7 4.01 -7 3.02 -7 2 C-7.66 1.67 -8.32 1.34 -9 1 C-6.04335481 -0.4783226 -3.25770263 -0.06032783 0 0 Z " fill="#6D9475" transform="translate(690,673)"/>
<path d="M0 0 C0.33 0.66 0.66 1.32 1 2 C0.67 2.66 0.34 3.32 0 4 C-0.66 4 -1.32 4 -2 4 C-2.33 4.66 -2.66 5.32 -3 6 C-3.33 5.01 -3.66 4.02 -4 3 C-2.68 2.01 -1.36 1.02 0 0 Z M-6 4 C-5.34 4.33 -4.68 4.66 -4 5 C-4 5.66 -4 6.32 -4 7 C-5.98 7.33 -7.96 7.66 -10 8 C-8.68 6.68 -7.36 5.36 -6 4 Z " fill="#ECF4EC" transform="translate(479,344)"/>
<path d="M0 0 C1.98 0.99 1.98 0.99 4 2 C4 2.99 4 3.98 4 5 C4.66 5.33 5.32 5.66 6 6 C4.34385343 6.38218767 2.67542976 6.71395102 1 7 C0 6 0 6 -0.0625 2.9375 C-0.041875 1.968125 -0.02125 0.99875 0 0 Z " fill="#DCEEE3" transform="translate(504,590)"/>
<path d="M0 0 C1.32 0 2.64 0 4 0 C4 1.98 4 3.96 4 6 C3.01 6.33 2.02 6.66 1 7 C0.67 4.69 0.34 2.38 0 0 Z " fill="#F0FCF4" transform="translate(714,570)"/>
<path d="M0 0 C0.33 0 0.66 0 1 0 C1 3.63 1 7.26 1 11 C0.01 11.33 -0.98 11.66 -2 12 C-2.33 10.02 -2.66 8.04 -3 6 C-2.34 5.67 -1.68 5.34 -1 5 C-0.34444881 2.47266765 -0.34444881 2.47266765 0 0 Z " fill="#4E705E" transform="translate(283,516)"/>
<path d="M0 0 C0.33 0 0.66 0 1 0 C1 5.28 1 10.56 1 16 C0.01 16 -0.98 16 -2 16 C-1.34 10.72 -0.68 5.44 0 0 Z " fill="#466955" transform="translate(282,500)"/>
<path d="M0 0 C4.95 0 9.9 0 15 0 C15 0.33 15 0.66 15 1 C13.7625 1.144375 12.525 1.28875 11.25 1.4375 C8.91951392 1.71288372 6.92598506 2.02400484 4.6875 2.75 C4.130625 2.8325 3.57375 2.915 3 3 C2.01 2.01 1.02 1.02 0 0 Z " fill="#4C7358" transform="translate(658,475)"/>
<path d="M0 0 C0.33 0 0.66 0 1 0 C1.125 6.75 1.125 6.75 0 9 C-1.32 9 -2.64 9 -4 9 C-4 8.34 -4 7.68 -4 7 C-3.34 7 -2.68 7 -2 7 C-1.855625 6.21625 -1.71125 5.4325 -1.5625 4.625 C-1 2 -1 2 0 0 Z " fill="#6B8775" transform="translate(351,427)"/>
<path d="M0 0 C0.99 1.32 1.98 2.64 3 4 C2.34 5.32 1.68 6.64 1 8 C0.34 8 -0.32 8 -1 8 C-1.66 6.35 -2.32 4.7 -3 3 C-2.01 2.01 -1.02 1.02 0 0 Z " fill="#4C8060" transform="translate(674,584)"/>
<path d="M0 0 C3.65316671 1.24976756 4.78065836 1.67098753 7 5 C4.69 4.67 2.38 4.34 0 4 C0 2.68 0 1.36 0 0 Z " fill="#517060" transform="translate(313,570)"/>
<path d="M0 0 C0.66 0 1.32 0 2 0 C2.33 1.98 2.66 3.96 3 6 C2.34 6 1.68 6 1 6 C0.67 7.32 0.34 8.64 0 10 C-1.2380014 6.42355152 -0.74926071 3.66305234 0 0 Z " fill="#5F816C" transform="translate(474,554)"/>
<path d="M0 0 C1 2 1 2 0.22265625 4.3828125 C-0.16019531 5.28773438 -0.54304688 6.19265625 -0.9375 7.125 C-1.31777344 8.03507813 -1.69804687 8.94515625 -2.08984375 9.8828125 C-2.39019531 10.58148437 -2.69054687 11.28015625 -3 12 C-4.46538911 7.57452487 -3.0196077 5.11689261 -1 1 C-0.67 0.67 -0.34 0.34 0 0 Z " fill="#779983" transform="translate(481,530)"/>
<path d="M0 0 C0.33 0 0.66 0 1 0 C1.33 1.98 1.66 3.96 2 6 C2.33 6 2.66 6 3 6 C3 7.98 3 9.96 3 12 C2.01 11.67 1.02 11.34 0 11 C0.66 11 1.32 11 2 11 C2 10.34 2 9.68 2 9 C1.01 8.67 0.02 8.34 -1 8 C-0.67 5.36 -0.34 2.72 0 0 Z " fill="#477352" transform="translate(682,505)"/>
<path d="M0 0 C0.66 0.33 1.32 0.66 2 1 C1.360625 1.763125 0.72125 2.52625 0.0625 3.3125 C-2.14232781 5.88246713 -2.14232781 5.88246713 -3 9 C-4.32 8.67 -5.64 8.34 -7 8 C-4.69 5.36 -2.38 2.72 0 0 Z " fill="#84A190" transform="translate(675,687)"/>
<path d="M0 0 C4.875 4.75 4.875 4.75 6 7 C5.01 7.33 4.02 7.66 3 8 C3 7.34 3 6.68 3 6 C2.01 5.67 1.02 5.34 0 5 C0 3.35 0 1.7 0 0 Z " fill="#617A70" transform="translate(448,676)"/>
<path d="M0 0 C0.66 0 1.32 0 2 0 C1.5251065 4.11574371 0.9789756 7.36383344 -1 11 C-1.02688151 9.35425434 -1.04634123 7.70838587 -1.0625 6.0625 C-1.07410156 5.14597656 -1.08570313 4.22945312 -1.09765625 3.28515625 C-1 1 -1 1 0 0 Z " fill="#586E64" transform="translate(449,647)"/>
<path d="M0 0 C1.1875 1.5625 1.1875 1.5625 2 4 C0.625 7.75 0.625 7.75 -1 11 C-2.60080151 6.99799622 -1.29279692 3.95443764 0 0 Z " fill="#6A8B76" transform="translate(470,579)"/>
<path d="M0 0 C0 1.66666667 0 3.33333333 0 5 C0.66 4.67 1.32 4.34 2 4 C1.34 5.32 0.68 6.64 0 8 C-0.99 7.34 -1.98 6.68 -3 6 C-3.1875 3.375 -3.1875 3.375 -3 1 C-2.01 0.67 -1.02 0.34 0 0 Z " fill="#AABCB0" transform="translate(619,360)"/>
<path d="M0 0 C0.33 0.66 0.66 1.32 1 2 C-1 5 -1 5 -3 5.8125 C-3.66 5.874375 -4.32 5.93625 -5 6 C-5.66 5.34 -6.32 4.68 -7 4 C-4.69 2.68 -2.38 1.36 0 0 Z " fill="#B0BEB4" transform="translate(691,679)"/>
<path d="M0 0 C2.5625 2.25 2.5625 2.25 5 5 C4.8125 7.3125 4.8125 7.3125 4 9 C0 3.375 0 3.375 0 0 Z " fill="#6E927C" transform="translate(453,670)"/>
<path d="M0 0 C0.66 0 1.32 0 2 0 C2 2.31 2 4.62 2 7 C-0.31 6.67 -2.62 6.34 -5 6 C-4.360625 5.7525 -3.72125 5.505 -3.0625 5.25 C-0.81258459 4.18437567 -0.81258459 4.18437567 -0.25 1.875 C-0.1675 1.25625 -0.085 0.6375 0 0 Z " fill="#8EA297" transform="translate(462,578)"/>
<path d="M0 0 C0.66 0 1.32 0 2 0 C2 2.31 2 4.62 2 7 C0.35 7 -1.3 7 -3 7 C-2.01 4.69 -1.02 2.38 0 0 Z " fill="#E2E7DE" transform="translate(448,576)"/>
<path d="M0 0 C0.66 0.33 1.32 0.66 2 1 C2.125 3.875 2.125 3.875 2 7 C1.34 7.66 0.68 8.32 0 9 C-0.99 8.67 -1.98 8.34 -3 8 C-2.505 7.236875 -2.01 6.47375 -1.5 5.6875 C0.24368308 3.07636249 0.24368308 3.07636249 0 0 Z " fill="#E4F9EC" transform="translate(681,560)"/>
<path d="M0 0 C2.64752004 2.57784846 4.94432065 4.91648098 7 8 C6.01 8.495 6.01 8.495 5 9 C5 8.34 5 7.68 5 7 C4.34 7 3.68 7 3 7 C3 6.34 3 5.68 3 5 C2.01 4.67 1.02 4.34 0 4 C0 2.68 0 1.36 0 0 Z " fill="#668071" transform="translate(299,555)"/>
<path d="M0 0 C0.66 0 1.32 0 2 0 C2.125 5.75 2.125 5.75 1 8 C0.34 8 -0.32 8 -1 8 C-0.67 5.36 -0.34 2.72 0 0 Z " fill="#D4E6D5" transform="translate(708,594)"/>
<path d="M0 0 C0.66 0 1.32 0 2 0 C1.67 3.3 1.34 6.6 1 10 C-1.56687367 6.1496895 -0.83288724 4.41430237 0 0 Z " fill="#BBBEB7" transform="translate(469,542)"/>
<path d="M0 0 C0.66 0.33 1.32 0.66 2 1 C1.67 3.97 1.34 6.94 1 10 C0.34 9.34 -0.32 8.68 -1 8 C-0.96712417 5.27130593 -0.43602229 2.7033382 0 0 Z " fill="#6A8D75" transform="translate(454,659)"/>
<path d="M0 0 C0.33 0 0.66 0 1 0 C1.08096803 1.45742463 1.13917774 2.91612807 1.1875 4.375 C1.22230469 5.18710937 1.25710938 5.99921875 1.29296875 6.8359375 C1.19628906 7.55007813 1.09960938 8.26421875 1 9 C0.01 9.66 -0.98 10.32 -2 11 C-1.34 7.37 -0.68 3.74 0 0 Z " fill="#C5DCC9" transform="translate(719,541)"/>
<path d="M0 0 C2.62386487 3.06117568 3 3.73173127 3 8 C2.01 7.67 1.02 7.34 0 7 C0 4.69 0 2.38 0 0 Z " fill="#5F7965" transform="translate(288,536)"/>
<path d="M0 0 C-0.33 1.32 -0.66 2.64 -1 4 C-2.98 4 -4.96 4 -7 4 C-3.17391304 0 -3.17391304 0 0 0 Z " fill="#E4EFE9" transform="translate(324,444)"/>
</svg>
